<?xml version="1.0" encoding="utf-8"?>
<!-- Generator: Adobe Illustrator 21.0.2, SVG Export Plug-In . SVG Version: 6.00 Build 0)  -->
<svg version="1.1" id="Capa_1" xmlns="http://www.w3.org/2000/svg" xmlns:xlink="http://www.w3.org/1999/xlink" x="0px" y="0px"
	 viewBox="0 0 300 150" style="enable-background:new 0 0 300 150;" xml:space="preserve">
<style type="text/css">
	.st0{fill:#FFFFFF;}
	.st1{fill:none;}
	.st2{fill:#037732;}
	.st3{fill:#007934;}
	.st4{fill:#144733;}
	.st5{fill:#12312B;}
	.st6{fill:#452E09;}
	.st7{fill:#512C1D;}
	.st8{fill:#31251C;}
	.st9{fill:#EB2725;}
	.st10{fill:#FD393E;}
	.st11{fill:#E91923;}
	.st12{fill:#CF1F21;}
	.st13{fill:#87A74C;}
	.st14{fill:#6B8E23;}
	.st15{fill:#4B0E06;}
	.st16{fill:#442902;}
	.st17{fill:#422E13;}
	.st18{fill:#076F40;}
	.st19{fill:#1AC45E;}
</style>
<g>
	<g>
		<g>
			<path class="st0" d="M21.5,63.6c-0.1-0.2,0-0.4,0.1-0.6l3.6-7.2c0.1-0.2,0.3-0.4,0.5-0.5s0.4,0,0.7,0.1c0.2,0.1,0.4,0.3,0.5,0.5
				s0,0.4-0.1,0.7l-3.4,6.7l3.5,1.7c0.5,0.2,0.6,0.6,0.4,1s-0.6,0.5-1.1,0.3l-4.3-2.2C21.7,63.9,21.5,63.8,21.5,63.6z"/>
			<path class="st0" d="M31.5,67.4c-0.5-0.4-0.8-0.8-1-1.4s-0.3-1.2-0.2-1.9c0.1-0.7,0.3-1.3,0.7-1.8c0.4-0.5,0.8-0.8,1.4-1
				c0.6-0.2,1.2-0.3,1.9-0.2s1.3,0.3,1.7,0.7c0.5,0.4,0.8,0.8,1,1.4c0.2,0.6,0.3,1.2,0.2,1.9c-0.1,0.7-0.3,1.3-0.7,1.8
				s-0.8,0.8-1.4,1.1c-0.6,0.2-1.2,0.3-1.9,0.2C32.6,67.9,32,67.7,31.5,67.4z M34.8,66.3c0.3-0.3,0.6-0.8,0.7-1.6
				c0.1-0.7,0-1.3-0.2-1.7s-0.6-0.7-1.2-0.7c-0.5-0.1-1,0-1.3,0.4c-0.3,0.3-0.6,0.8-0.7,1.5c-0.1,0.7,0,1.3,0.2,1.7
				c0.2,0.4,0.6,0.6,1.2,0.7C34,66.8,34.4,66.7,34.8,66.3z"/>
			<path class="st0" d="M44,60.7c0.1-0.1,0.2-0.2,0.4-0.2s0.4,0,0.6,0.1c0.2,0.1,0.3,0.3,0.3,0.5c0,0.1,0,0.2,0,0.3l-1.6,5.7
				c-0.1,0.2-0.1,0.3-0.3,0.5c-0.1,0.1-0.3,0.2-0.5,0.2s-0.3,0-0.5,0c-0.2-0.1-0.3-0.2-0.4-0.3l-3.5-4.8c-0.1-0.1-0.1-0.2-0.1-0.3
				c0-0.2,0-0.4,0.2-0.6c0.2-0.2,0.3-0.3,0.6-0.3c0.3-0.1,0.6,0.1,0.8,0.3l2.7,3.9l1.1-4.5C43.8,60.9,43.9,60.8,44,60.7z"/>
			<path class="st0" d="M53.6,61.9c0.1,0.1,0.3,0.2,0.4,0.4c0.1,0.3,0.1,0.5-0.1,0.9c-0.2,0.3-0.4,0.6-0.7,0.9s-0.6,0.5-0.9,0.7
				c-1,0.5-1.9,0.6-2.7,0.4c-0.9-0.3-1.5-0.9-2-1.8c-0.3-0.6-0.5-1.2-0.5-1.8s0.1-1.1,0.5-1.6c0.3-0.5,0.7-0.9,1.3-1.2
				c0.5-0.3,1.1-0.4,1.6-0.4s1,0.2,1.5,0.5c0.4,0.3,0.8,0.8,1.1,1.4c0.2,0.4,0.1,0.6-0.2,0.8L49.3,63c0.3,0.5,0.7,0.9,1.1,1
				c0.4,0.1,0.9,0.1,1.4-0.2c0.3-0.1,0.5-0.3,0.6-0.5c0.2-0.2,0.3-0.4,0.5-0.6c0.2-0.3,0.3-0.4,0.4-0.5
				C53.3,61.8,53.5,61.8,53.6,61.9z M48.5,60.5c-0.1,0.4-0.1,0.8,0.1,1.4l2.8-1.5c-0.3-0.5-0.6-0.8-1-0.9c-0.4-0.1-0.7-0.1-1.2,0.1
				C48.9,59.8,48.6,60.1,48.5,60.5z"/>
		</g>
		<g>
			<path class="st0" d="M17.2,12.1c0.2,0,0.4,0.1,0.6,0.3l5.8,5.7c0.2,0.2,0.3,0.4,0.3,0.6s-0.1,0.4-0.2,0.6
				c-0.2,0.2-0.4,0.3-0.7,0.3l-8.2-1l4.3,4.2c0.2,0.2,0.3,0.4,0.3,0.6s-0.1,0.4-0.2,0.6c-0.2,0.2-0.4,0.3-0.6,0.3S18.2,24.2,18,24
				l-5.8-5.7c-0.2-0.2-0.3-0.4-0.3-0.6c0-0.2,0.1-0.4,0.3-0.6s0.4-0.3,0.7-0.2l8.2,1l-4.4-4.4c-0.2-0.2-0.3-0.4-0.3-0.6
				c0-0.2,0.1-0.4,0.2-0.6C16.8,12.1,17,12,17.2,12.1z"/>
			<path class="st0" d="M27.6,10.2c0.6,0.2,1.1,0.8,1.5,1.7l1.4,3.1c0.1,0.2,0.1,0.4,0,0.6S30.3,15.9,30,16c-0.2,0.1-0.4,0.1-0.6,0
				s-0.3-0.2-0.4-0.4l-0.1-0.3c0,0.4-0.1,0.7-0.3,1.1c-0.2,0.3-0.5,0.6-0.9,0.8s-0.8,0.3-1.2,0.3c-0.4,0-0.8-0.1-1.1-0.3
				c-0.3-0.2-0.6-0.5-0.7-0.9c-0.2-0.5-0.2-0.9-0.1-1.2c0.1-0.4,0.4-0.7,0.9-1.1c0.5-0.4,1.2-0.7,2.1-1.1l0.3-0.1l-0.4-0.5
				c-0.2-0.4-0.4-0.7-0.7-0.8s-0.6-0.1-1,0.1c-0.2,0.1-0.5,0.3-0.7,0.4c-0.2,0.2-0.5,0.4-0.8,0.7c-0.2,0.2-0.3,0.3-0.4,0.4
				c-0.2,0.1-0.3,0.1-0.4,0s-0.3-0.2-0.3-0.4c-0.1-0.1-0.1-0.3-0.1-0.4s0.1-0.3,0.2-0.5c0.2-0.3,0.5-0.6,0.9-0.9
				c0.4-0.3,0.7-0.5,1.1-0.7C26.3,10,27,9.9,27.6,10.2z M28.3,15c0.1-0.4,0.1-0.8-0.1-1.3l-0.1-0.3l-0.3,0.1c-0.6,0.3-1,0.5-1.3,0.7
				S26,14.6,26,14.8c-0.1,0.2-0.1,0.4,0,0.6c0.1,0.3,0.3,0.4,0.6,0.5c0.3,0.1,0.5,0.1,0.8-0.1C27.8,15.7,28.1,15.4,28.3,15z"/>
			<path class="st0" d="M36.5,14.1c0,0.2,0,0.4-0.2,0.5s-0.4,0.2-0.7,0.3h-0.4c-1.5,0.1-2.4-0.6-2.7-2.1l-0.4-3l-0.7,0.1
				c-0.2,0-0.4,0-0.6-0.1c-0.1-0.1-0.2-0.2-0.3-0.4c0-0.2,0-0.4,0.1-0.5c0.1-0.1,0.3-0.2,0.5-0.2l0.8-0.2l-0.2-1.3
				c0-0.2,0-0.5,0.1-0.6c0.2-0.1,0.4-0.2,0.7-0.3c0.3,0,0.5,0,0.6,0.1c0.2,0.1,0.3,0.3,0.3,0.6l0.2,1.3l1.2-0.2c0.2,0,0.4,0,0.6,0.1
				c0.1,0.1,0.2,0.2,0.3,0.4c0,0.2,0,0.4-0.1,0.5s-0.3,0.2-0.5,0.2l-1.3,0.2l0.5,3.1c0.1,0.7,0.5,1,1.1,0.9h0.4
				C36.2,13.5,36.4,13.7,36.5,14.1z"/>
			<path class="st0" d="M44.1,8.7c0.1,0.2,0.2,0.4,0.2,0.6l-0.7,5.3c0,0.2-0.1,0.4-0.3,0.5s-0.4,0.2-0.7,0.1c-0.2,0-0.4-0.1-0.6-0.3
				c-0.1-0.2-0.2-0.4-0.1-0.6V14c-0.3,0.3-0.6,0.6-1,0.7s-0.8,0.2-1.2,0.1c-1.6-0.2-2.3-1.2-2.1-3.1l0.5-3.2c0-0.2,0.1-0.4,0.3-0.6
				c0.2-0.1,0.4-0.2,0.6-0.1c0.3,0,0.5,0.1,0.6,0.3c0.1,0.2,0.2,0.4,0.2,0.6l-0.4,3.4c-0.1,0.5,0,0.8,0.2,1.1s0.4,0.4,0.9,0.5
				s0.9,0,1.2-0.3s0.5-0.7,0.6-1.2l0.4-3.1c0-0.2,0.1-0.4,0.3-0.6c0.2-0.1,0.4-0.2,0.6-0.1C43.8,8.4,44,8.5,44.1,8.7z"/>
			<path class="st0" d="M51.7,11.5c0.1,0.2,0.1,0.4,0,0.6c-0.1,0.2-0.2,0.4-0.4,0.4c-0.2,0.1-0.4,0-0.7,0l-0.4-0.1
				c-0.5-0.2-1-0.2-1.3,0c-0.4,0.2-0.6,0.5-0.8,0.9L46.9,16c-0.1,0.2-0.3,0.4-0.5,0.5c-0.2,0.1-0.4,0-0.7-0.1
				c-0.3-0.1-0.4-0.2-0.5-0.4s-0.1-0.4,0-0.7l2.3-4.9c0.1-0.2,0.3-0.4,0.5-0.4c0.2-0.1,0.4,0,0.6,0.1c0.2,0.1,0.4,0.2,0.4,0.4
				c0.1,0.2,0.1,0.4,0,0.6l-0.2,0.4c0.3-0.3,0.7-0.5,1.1-0.5c0.4-0.1,0.8,0,1.2,0.1l0.2,0.1C51.5,11.3,51.7,11.4,51.7,11.5z"/>
			<path class="st0" d="M57.6,16.5c0.1,0.6-0.2,1.3-0.8,2.1l-2.1,2.6c-0.2,0.2-0.4,0.3-0.6,0.3s-0.4-0.1-0.6-0.2
				c-0.2-0.2-0.3-0.3-0.3-0.5s0-0.4,0.2-0.6l0.2-0.2c-0.3,0.2-0.7,0.2-1.1,0.2c-0.4-0.1-0.8-0.2-1.1-0.5s-0.6-0.6-0.8-1
				s-0.2-0.8-0.2-1.1c0-0.4,0.2-0.7,0.4-1c0.3-0.4,0.7-0.6,1-0.7c0.4-0.1,0.8,0,1.3,0.3c0.5,0.3,1.2,0.7,1.9,1.4l0.3,0.2l0.2-0.2
				c0.3-0.3,0.4-0.7,0.4-0.9s-0.2-0.6-0.5-0.8c-0.2-0.2-0.4-0.3-0.7-0.4s-0.6-0.2-1-0.4c-0.3-0.1-0.4-0.1-0.5-0.2
				c-0.1-0.1-0.2-0.2-0.2-0.4s0.1-0.3,0.2-0.5c0.1-0.1,0.2-0.2,0.3-0.2s0.3,0,0.5,0c0.4,0.1,0.7,0.2,1.2,0.4
				c0.4,0.2,0.8,0.4,1.1,0.7C57.1,15.2,57.5,15.9,57.6,16.5z M53.6,19.2c0.4-0.1,0.8-0.3,1.1-0.6l0.2-0.2l-0.2-0.2
				c-0.5-0.4-0.9-0.7-1.2-0.8c-0.3-0.2-0.5-0.3-0.7-0.2c-0.2,0-0.4,0.1-0.5,0.3c-0.2,0.2-0.3,0.5-0.2,0.8c0,0.3,0.2,0.5,0.4,0.7
				C52.8,19.1,53.2,19.3,53.6,19.2z"/>
			<path class="st0" d="M55.5,23.3c0-0.2,0.1-0.4,0.3-0.6l6.6-4.9c0.2-0.2,0.4-0.2,0.6-0.2s0.4,0.2,0.5,0.4c0.1,0.2,0.2,0.4,0.2,0.6
				s-0.1,0.4-0.3,0.6l-6.6,4.9c-0.2,0.2-0.4,0.2-0.6,0.2c-0.2,0-0.4-0.2-0.5-0.4C55.5,23.7,55.4,23.5,55.5,23.3z"/>
		</g>
		<path class="st0" d="M37.5,72.5c-9.3,0-18-3.6-24.6-10.2C6.2,55.8,2.5,47,2.5,37.6c0-9.3,3.6-18.1,10.2-24.7
			C19.2,6.2,28,2.5,37.4,2.5c9.3,0,18.1,3.6,24.7,10.2c6.7,6.5,10.4,15.3,10.4,24.7c0,9.3-3.6,18.2-10.2,24.8
			C55.8,68.8,47,72.5,37.5,72.5L37.5,72.5z M37.5,3.5L37.5,3.5c-9.2,0-17.7,3.6-24.1,10.1c-6.5,6.4-10,14.9-9.9,24
			c0,9.1,3.6,17.6,10.1,24c6.4,6.4,14.9,9.9,23.9,9.9h0.1c9.1,0,17.6-3.6,24-10.1s9.9-15,9.9-24.1s-3.6-17.6-10.1-24
			C55,7,46.5,3.5,37.5,3.5z"/>
	</g>
	<path class="st0" d="M11.8,27.1c-1.7,3.7-2.5,7.6-2.5,11.7c0,7.5,3,14.6,8.3,19.9l0.7-0.7c-5.2-5.1-8-11.9-8-19.2
		c0-4,0.8-7.8,2.4-11.3"/>
	<path class="st0" d="M63.2,27.1c1.7,3.7,2.5,7.6,2.5,11.7c0,7.5-3,14.6-8.3,19.9L56.7,58c5.2-5.1,8-11.9,8-19.2
		c0-4-0.8-7.8-2.4-11.3"/>
	<g>
		<g>
			<path class="st1" d="M32.2,22.8c-0.6,0.1-1.2,0.2-1.7,0.4c0.5,1,1,2,1.7,2.9C32.1,25,32.1,23.8,32.2,22.8z"/>
			<path class="st1" d="M45.6,23.8c-0.2-0.1-0.4-0.3-0.7-0.4c0,0.7-0.1,1.5-0.2,2.2C45.1,25,45.4,24.4,45.6,23.8z"/>
			<path class="st0" d="M39.3,23.4c-0.6,0.3-1.1,0.6-1.6,1.1c0.2,0.3,0.3,0.6,0.5,0.9C38.7,24.7,39,24,39.3,23.4z"/>
			<path class="st0" d="M38.3,25.3c0.1,0.2,0.3,0.4,0.4,0.6c1.3,1.8,1.7,3.9,1.7,5.9c0.8-1.4,1.7-2.7,2.8-4c0.4-0.4,0.7-0.9,1.1-1.4
				c0.2-0.3,0.4-0.6,0.5-0.9c0.1-0.8-0.7-2.6-1.1-2.7c-0.5-0.1-1-0.2-1.6-0.2c-1,0-1.9,0.2-2.7,0.6C39,24,38.7,24.7,38.3,25.3z"/>
			<path class="st0" d="M32.2,26.1c0.1,0.1,0.1,0.2,0.2,0.2c3.9,5.3,4.7,12.4,4.9,14.4c0.2-1.4,1-5.1,3.1-8.9c0-2-0.4-4.1-1.7-5.9
				c-0.1-0.2-0.3-0.4-0.4-0.6c-0.2-0.3-0.4-0.6-0.5-0.9c-0.1,0.1-0.2,0.2-0.3,0.3l0,0c-1.2-1.2-2.8-1.9-4.6-1.9c-0.2,0-0.5,0-0.7,0
				C32.1,23.8,32.1,25,32.2,26.1z"/>
			<path class="st0" d="M43.2,27.9c-1.1,1.3-2.1,2.7-2.8,4c-2.1,3.8-2.9,7.5-3.1,8.9v0.1c0.1,0,0.2,0,0.3,0c1.1-1.2,4.9-5.2,10-8.2
				c0.6-1,1-2.2,1-3.5c0-2.3-1.2-4.2-2.9-5.4c-0.2,0.6-0.5,1.2-0.9,1.8C44.4,26.4,43.8,27.1,43.2,27.9z"/>
			<path class="st0" d="M36.9,40.9c0.1,0,0.2,0,0.3,0l0,0v-0.1c-0.2-2-1-9.1-4.9-14.4c-0.1-0.1-0.1-0.2-0.2-0.2
				c-0.7-0.9-1.3-1.9-1.7-2.9c-2.3,1-4,3.3-4,6c0,1.6,0.6,3,1.5,4.1C32.7,36.4,36,39.8,36.9,40.9z"/>
			<path class="st0" d="M36.9,40.9c-1-1-4.2-4.5-9-7.6c0.1,0.2,0.3,0.3,0.4,0.5l0,0l7,7C35.9,40.8,36.4,40.8,36.9,40.9z"/>
			<path class="st0" d="M37.6,40.9c0.7,0,1.5-0.1,2.2-0.1l6.9-6.9l0,0c0.3-0.3,0.6-0.7,0.9-1.1C42.5,35.6,38.6,39.7,37.6,40.9z"/>
			<path class="st0" d="M39.7,40.7c-0.7,0.1-1.4,0.1-2.2,0.1c-0.1,0-0.2,0-0.3,0l0,0c-0.1,0-0.2,0-0.3,0c-0.5,0-1.1,0-1.6-0.1
				l2.2,2.2L39.7,40.7z"/>
		</g>
		<g>
			<path class="st0" d="M31.7,51.7H43c0.1,0,0.2-0.1,0.3-0.2l1.4-8.4c0-0.2-0.1-0.3-0.3-0.3H30.3c-0.2,0-0.3,0.1-0.3,0.3l1.4,8.4
				C31.5,51.6,31.6,51.7,31.7,51.7z"/>
			<path class="st0" d="M28.9,40.2h17.2c0.1,0,0.3,0.1,0.3,0.3v2.6c0,0.1-0.1,0.3-0.3,0.3H28.9c-0.1,0-0.3-0.1-0.3-0.3v-2.6
				C28.7,40.3,28.8,40.2,28.9,40.2z"/>
		</g>
	</g>
</g>
<g>
	<g>
		<g>
			<path class="st2" d="M171.5,63.5c-0.1-0.2,0-0.4,0.1-0.6l3.6-7.2c0.1-0.2,0.3-0.4,0.5-0.5c0.2-0.1,0.4,0,0.7,0.1
				c0.2,0.1,0.4,0.3,0.5,0.5s0,0.4-0.1,0.7l-3.4,6.7l3.5,1.7c0.5,0.2,0.6,0.6,0.4,1c-0.2,0.4-0.6,0.5-1.1,0.3l-4.3-2.2
				C171.6,63.9,171.5,63.8,171.5,63.5z"/>
			<path class="st2" d="M181.5,67.4c-0.5-0.4-0.8-0.8-1-1.4c-0.2-0.6-0.3-1.2-0.2-1.9c0.1-0.7,0.3-1.3,0.7-1.8s0.8-0.8,1.4-1
				s1.2-0.3,1.9-0.2c0.7,0.1,1.3,0.3,1.7,0.7c0.5,0.4,0.8,0.8,1,1.4c0.2,0.6,0.3,1.2,0.2,1.9s-0.3,1.3-0.7,1.8s-0.8,0.8-1.4,1.1
				c-0.6,0.2-1.2,0.3-1.9,0.2C182.6,67.9,182,67.6,181.5,67.4z M184.8,66.2c0.3-0.3,0.6-0.8,0.7-1.6c0.1-0.7,0-1.3-0.2-1.7
				c-0.2-0.4-0.6-0.7-1.2-0.7c-0.5-0.1-1,0-1.3,0.4c-0.3,0.3-0.6,0.8-0.7,1.5c-0.1,0.7,0,1.3,0.2,1.7c0.2,0.4,0.6,0.6,1.2,0.7
				C184,66.8,184.4,66.6,184.8,66.2z"/>
			<path class="st2" d="M194,60.7c0.1-0.1,0.2-0.2,0.4-0.2c0.2,0,0.4,0,0.6,0.1c0.2,0.1,0.3,0.3,0.3,0.5c0,0.1,0,0.2,0,0.3l-1.6,5.7
				c-0.1,0.2-0.1,0.3-0.3,0.5c-0.1,0.1-0.3,0.2-0.5,0.2c-0.2,0-0.3,0-0.5,0c-0.2-0.1-0.3-0.2-0.4-0.3l-3.5-4.8
				c-0.1-0.1-0.1-0.2-0.1-0.3c0-0.2,0-0.4,0.2-0.6c0.1-0.2,0.3-0.3,0.6-0.3c0.3-0.1,0.6,0.1,0.8,0.3l2.7,3.9l1.1-4.5
				C193.8,60.9,193.9,60.8,194,60.7z"/>
			<path class="st2" d="M203.6,61.9c0.1,0.1,0.3,0.2,0.4,0.4c0.1,0.3,0.1,0.5-0.1,0.9c-0.2,0.3-0.4,0.6-0.7,0.9
				c-0.3,0.3-0.6,0.5-0.9,0.7c-1,0.5-1.9,0.6-2.7,0.4c-0.9-0.3-1.5-0.9-2-1.8c-0.3-0.6-0.5-1.2-0.5-1.8s0.1-1.1,0.5-1.6
				c0.3-0.5,0.7-0.9,1.3-1.2c0.5-0.3,1.1-0.4,1.6-0.4s1,0.2,1.5,0.5c0.4,0.3,0.8,0.8,1.1,1.4c0.2,0.4,0.1,0.6-0.2,0.8l-3.6,1.9
				c0.3,0.5,0.7,0.9,1.1,1c0.4,0.1,0.9,0.1,1.4-0.2c0.3-0.1,0.5-0.3,0.6-0.5c0.2-0.2,0.3-0.4,0.5-0.6c0.2-0.3,0.3-0.4,0.4-0.5
				C203.2,61.8,203.5,61.8,203.6,61.9z M198.5,60.5c-0.1,0.4-0.1,0.8,0.1,1.4l2.8-1.5c-0.3-0.5-0.6-0.8-1-0.9
				c-0.4-0.1-0.7-0.1-1.2,0.1C198.9,59.8,198.6,60,198.5,60.5z"/>
		</g>
		<g>
			<path class="st3" d="M167.1,12.1c0.2,0,0.4,0.1,0.6,0.3l5.8,5.7c0.2,0.2,0.3,0.4,0.3,0.6s-0.1,0.4-0.2,0.6
				c-0.2,0.2-0.4,0.3-0.7,0.3l-8.2-1l4.3,4.2c0.2,0.2,0.3,0.4,0.3,0.6s-0.1,0.4-0.2,0.6c-0.2,0.2-0.4,0.3-0.6,0.3
				c-0.2,0-0.4-0.1-0.6-0.3l-5.8-5.7c-0.2-0.2-0.3-0.4-0.3-0.6c0-0.2,0.1-0.4,0.3-0.6c0.2-0.2,0.4-0.3,0.7-0.2l8.2,1l-4.2-4.2
				c-0.2-0.2-0.3-0.4-0.3-0.6c0-0.2,0.1-0.4,0.2-0.6C166.8,12.1,167,12,167.1,12.1z"/>
			<path class="st3" d="M177.6,10.2c0.6,0.2,1.1,0.8,1.5,1.7l1.4,3.1c0.1,0.2,0.1,0.4,0,0.6c-0.1,0.2-0.2,0.3-0.5,0.4
				c-0.2,0.1-0.4,0.1-0.6,0s-0.3-0.2-0.4-0.4l-0.1-0.3c0,0.4-0.1,0.7-0.3,1.1c-0.2,0.3-0.5,0.6-0.9,0.8s-0.8,0.3-1.2,0.3
				s-0.8-0.1-1.1-0.3c-0.3-0.2-0.6-0.5-0.7-0.9c-0.2-0.5-0.2-0.9-0.1-1.2c0.1-0.4,0.4-0.7,0.9-1.1s1.2-0.7,2.1-1.1l0.3-0.1l-0.1-0.3
				c-0.2-0.4-0.4-0.7-0.7-0.8c-0.3-0.1-0.6-0.1-1,0.1c-0.2,0.1-0.5,0.3-0.7,0.4c-0.2,0.1-0.5,0.4-0.8,0.7c-0.2,0.2-0.3,0.3-0.4,0.4
				c-0.2,0.1-0.3,0.1-0.4,0s-0.3-0.2-0.3-0.4c-0.1-0.1-0.1-0.3-0.1-0.4c0-0.1,0.1-0.3,0.2-0.5c0.2-0.3,0.5-0.6,0.9-0.9
				c0.4-0.3,0.7-0.5,1.1-0.7C176.2,10,177,9.9,177.6,10.2z M178.2,15c0.1-0.4,0.1-0.8-0.1-1.3l-0.1-0.3l-0.2,0.1
				c-0.6,0.3-1,0.5-1.3,0.7c-0.3,0.2-0.5,0.4-0.5,0.6c-0.1,0.2-0.1,0.4,0,0.6c0.1,0.3,0.3,0.4,0.6,0.5c0.3,0.1,0.5,0.1,0.8-0.1
				C177.8,15.7,178.1,15.4,178.2,15z"/>
			<path class="st3" d="M186.5,14.1c0,0.2,0,0.4-0.2,0.5c-0.2,0.1-0.4,0.2-0.7,0.3h-0.4c-1.5,0.1-2.4-0.6-2.7-2.1l-0.4-3l-0.7,0.1
				c-0.2,0-0.4,0-0.6-0.1c-0.1-0.1-0.2-0.2-0.3-0.4c0-0.2,0-0.4,0.1-0.5c0.1-0.1,0.3-0.2,0.5-0.2l0.7-0.1l-0.2-1.3
				c0-0.2,0-0.5,0.1-0.6c0.1-0.2,0.3-0.3,0.6-0.3c0.3,0,0.5,0,0.6,0.1c0.2,0.1,0.3,0.3,0.3,0.6l0.2,1.3l1.2-0.2c0.2,0,0.4,0,0.6,0.1
				c0.1,0.1,0.2,0.2,0.3,0.4c0,0.2,0,0.4-0.1,0.5s-0.3,0.2-0.5,0.2l-1.1,0.1l0.5,3.1c0.1,0.7,0.5,1,1.1,0.9h0.4
				C186.1,13.5,186.4,13.7,186.5,14.1z"/>
			<path class="st3" d="M194.1,8.7c0.1,0.2,0.2,0.4,0.2,0.6l-0.7,5.3c0,0.2-0.1,0.4-0.3,0.5c-0.2,0.1-0.4,0.2-0.7,0.1
				c-0.2,0-0.4-0.1-0.6-0.3c-0.1-0.2-0.2-0.4-0.1-0.6V14c-0.3,0.3-0.6,0.6-1,0.7c-0.4,0.2-0.8,0.2-1.2,0.1c-1.6-0.2-2.3-1.2-2.1-3.1
				l0.4-3.4c0-0.2,0.1-0.4,0.3-0.6c0.2-0.1,0.4-0.2,0.6-0.1c0.3,0,0.5,0.1,0.6,0.3c0.1,0.2,0.2,0.4,0.2,0.6l-0.4,3.4
				c-0.1,0.5,0,0.8,0.2,1.1c0.2,0.3,0.4,0.4,0.9,0.5s0.9,0,1.2-0.3c0.3-0.3,0.5-0.7,0.6-1.2l0.4-3.1c0-0.2,0.1-0.4,0.3-0.6
				c0.2-0.1,0.4-0.2,0.6-0.1C193.8,8.4,194,8.5,194.1,8.7z"/>
			<path class="st3" d="M201.6,11.5c0.1,0.2,0.1,0.4,0,0.6c-0.1,0.2-0.2,0.4-0.4,0.4c-0.2,0.1-0.4,0-0.7,0l-0.4-0.1
				c-0.5-0.2-1-0.2-1.3,0c-0.4,0.2-0.6,0.5-0.8,0.9l-1.2,2.7c-0.1,0.2-0.3,0.4-0.5,0.5c-0.2,0.1-0.4,0-0.7-0.1
				c-0.3-0.1-0.4-0.2-0.5-0.4s-0.1-0.4,0-0.7l2.2-4.9c0.1-0.2,0.3-0.4,0.5-0.4c0.2-0.1,0.4,0,0.6,0.1s0.4,0.2,0.4,0.4
				c0.1,0.2,0.1,0.4,0,0.6l-0.2,0.5c0.3-0.3,0.7-0.5,1.1-0.5c0.4-0.1,0.8,0,1.2,0.1l0.2,0.1C201.5,11.3,201.6,11.4,201.6,11.5z"/>
			<path class="st3" d="M207.6,16.5c0.1,0.6-0.2,1.3-0.8,2.1l-2.1,2.6c-0.2,0.2-0.3,0.3-0.5,0.3c-0.2,0-0.4-0.1-0.6-0.2
				c-0.2-0.2-0.3-0.3-0.3-0.5s0-0.4,0.2-0.6l0.2-0.2c-0.3,0.2-0.7,0.2-1.1,0.2c-0.4-0.1-0.8-0.2-1.1-0.5c-0.3-0.3-0.6-0.6-0.8-1
				c-0.2-0.4-0.2-0.8-0.2-1.1c0-0.4,0.2-0.7,0.4-1c0.3-0.4,0.7-0.6,1-0.7c0.4-0.1,0.8,0,1.3,0.3c0.5,0.3,1.2,0.7,1.9,1.4l0.3,0.2
				l0.2-0.2c0.3-0.3,0.4-0.7,0.4-0.9c0-0.3-0.2-0.6-0.5-0.8c-0.2-0.2-0.4-0.3-0.7-0.4c-0.3-0.1-0.6-0.2-1-0.4
				c-0.3-0.1-0.4-0.1-0.5-0.2c-0.1-0.1-0.2-0.2-0.2-0.4s0.1-0.3,0.2-0.5c0.1-0.1,0.2-0.2,0.3-0.2s0.3,0,0.5,0
				c0.4,0.1,0.7,0.2,1.2,0.4c0.4,0.2,0.8,0.4,1.1,0.7C207.1,15.2,207.5,15.9,207.6,16.5z M203.6,19.2c0.4-0.1,0.8-0.3,1.1-0.6
				l0.2-0.2l-0.2-0.2c-0.5-0.4-0.9-0.7-1.2-0.8c-0.3-0.2-0.5-0.3-0.8-0.2c-0.2,0-0.4,0.1-0.5,0.3c-0.2,0.2-0.3,0.5-0.2,0.8
				s0.2,0.5,0.4,0.7C202.8,19.1,203.1,19.2,203.6,19.2z"/>
			<path class="st3" d="M205.5,23.2c0-0.2,0.1-0.4,0.3-0.6l6.6-4.9c0.2-0.2,0.4-0.2,0.6-0.2s0.4,0.2,0.5,0.4
				c0.1,0.2,0.2,0.4,0.2,0.6s-0.1,0.4-0.3,0.6l-6.6,4.9c-0.2,0.2-0.4,0.2-0.6,0.2c-0.2,0-0.4-0.2-0.5-0.4
				C205.5,23.7,205.4,23.5,205.5,23.2z"/>
		</g>
		<path class="st2" d="M187.5,72.4c-9.3,0-18-3.6-24.6-10.2c-6.6-6.6-10.3-15.4-10.3-24.7s3.6-18.2,10.2-24.8
			c6.4-6.6,15.2-10.3,24.6-10.3s18.2,3.6,24.8,10.2s10.3,15.4,10.3,24.7s-3.6,18.2-10.2,24.8s-15.4,10.3-24.7,10.4
			C187.6,72.4,187.5,72.4,187.5,72.4z M187.5,3.5h-0.1c-9.1,0-17.6,3.6-24,10.1s-9.9,15-9.9,24.1s3.6,17.6,10.1,24
			c6.4,6.4,14.9,9.9,24,9.9h0.1c9.1,0,17.6-3.6,24-10.1s9.9-15,9.9-24.1s-3.6-17.6-10.1-24S196.5,3.5,187.5,3.5z"/>
	</g>
	<path class="st2" d="M161.8,27.1c-1.7,3.7-2.5,7.6-2.5,11.7c0,7.5,3,14.6,8.3,19.9l0.7-0.7c-5.2-5.1-8-11.9-8-19.2
		c0-4,0.8-7.8,2.4-11.3"/>
	<path class="st2" d="M213.1,27.1c1.7,3.7,2.5,7.6,2.5,11.7c0,7.5-3,14.6-8.3,19.9l-0.7-0.7c5.2-5.1,8-11.9,8-19.2
		c0-4-0.8-7.8-2.4-11.3"/>
	<g>
		<g>
			<path class="st1" d="M182.1,22.8c-0.6,0.1-1.2,0.2-1.7,0.4c0.5,1,1,2,1.7,2.9C182.1,25,182.1,23.8,182.1,22.8z"/>
			<path class="st1" d="M195.6,23.8c-0.2-0.1-0.4-0.3-0.7-0.4c0,0.7-0.1,1.5-0.2,2.2C195.1,25,195.4,24.4,195.6,23.8z"/>
			<path class="st3" d="M189.2,23.4c-0.6,0.3-1.1,0.6-1.6,1.1c0.2,0.3,0.3,0.6,0.5,0.9C188.6,24.7,189,24,189.2,23.4z"/>
			<path class="st4" d="M188.2,25.2c0.1,0.2,0.3,0.4,0.4,0.6c1.3,1.8,1.7,3.9,1.7,5.9c0.8-1.4,1.7-2.7,2.8-4
				c0.4-0.4,0.7-0.9,1.1-1.4c0.2-0.3,0.4-0.6,0.5-0.9c0.1-0.8-0.7-2.6-1.1-2.7c-0.5-0.1-1-0.2-1.6-0.2c-1,0-1.9,0.2-2.7,0.6
				C189,24,188.6,24.7,188.2,25.2z"/>
			<path class="st5" d="M182.1,26.1c0.1,0.1,0.1,0.2,0.2,0.2c3.9,5.3,4.7,12.4,4.9,14.4c0.2-1.4,1-5.1,3.1-8.9c0-2-0.4-4.1-1.7-5.9
				c-0.1-0.2-0.3-0.4-0.4-0.6c-0.2-0.3-0.4-0.6-0.5-0.9c-0.1,0.1-0.2,0.2-0.3,0.3l0,0c-1.2-1.2-2.8-1.9-4.6-1.9c-0.2,0-0.5,0-0.7,0
				C182.1,23.8,182.1,25,182.1,26.1z"/>
			<path class="st3" d="M193.1,27.9c-1.1,1.3-2.1,2.7-2.8,4c-2.1,3.8-2.9,7.5-3.1,8.9v0.1c0.1,0,0.2,0,0.3,0c1.1-1.2,4.9-5.2,10-8.2
				c0.6-1,1-2.2,1-3.5c0-2.3-1.2-4.2-2.9-5.4c-0.2,0.6-0.5,1.2-0.9,1.8C194.4,26.4,193.8,27.1,193.1,27.9z"/>
			<path class="st3" d="M186.9,40.9c0.1,0,0.2,0,0.3,0l0,0v-0.1c-0.2-2-1-9.1-4.9-14.4c-0.1-0.1-0.1-0.2-0.2-0.2
				c-0.7-0.9-1.3-1.9-1.7-2.9c-2.3,1-4,3.3-4,6c0,1.6,0.6,3,1.5,4.1C182.6,36.4,186,39.8,186.9,40.9z"/>
			<path class="st4" d="M186.9,40.9c-1-1-4.2-4.5-9-7.6c0.1,0.2,0.3,0.3,0.4,0.5l0,0l7,7C185.9,40.8,186.4,40.8,186.9,40.9z"/>
			<path class="st4" d="M187.6,40.9c0.7,0,1.5-0.1,2.2-0.1l6.9-6.9l0,0c0.3-0.3,0.6-0.7,0.9-1.1C192.5,35.5,188.6,39.7,187.6,40.9z"
				/>
			<path class="st6" d="M189.6,40.7c-0.7,0.1-1.4,0.1-2.2,0.1c-0.1,0-0.2,0-0.3,0l0,0c-0.1,0-0.2,0-0.3,0c-0.5,0-1.1,0-1.6-0.1
				l2.2,2.2L189.6,40.7z"/>
		</g>
		<g>
			<path class="st7" d="M181.6,51.7H193c0.1,0,0.2-0.1,0.3-0.2l1.4-8.4c0-0.2-0.1-0.3-0.3-0.3h-14.2c-0.2,0-0.3,0.1-0.3,0.3l1.4,8.4
				C181.5,51.5,181.6,51.7,181.6,51.7z"/>
			<path class="st8" d="M178.9,40.2H196c0.1,0,0.3,0.1,0.3,0.3V43c0,0.1-0.1,0.3-0.3,0.3h-17.2c-0.1,0-0.3-0.1-0.3-0.3v-2.6
				C178.6,40.2,178.8,40.2,178.9,40.2z"/>
		</g>
	</g>
</g>
<g>
	<g>
		<g>
			<path d="M96.5,63.5c-0.1-0.2,0-0.4,0.1-0.6l3.6-7.2c0.1-0.2,0.3-0.4,0.5-0.5s0.4,0,0.7,0.1c0.2,0.1,0.4,0.3,0.5,0.5
				s0,0.4-0.1,0.7l-3.4,6.7l3.5,1.7c0.5,0.2,0.6,0.6,0.4,1c-0.2,0.4-0.6,0.5-1.1,0.3l-4.3-2.2C96.7,63.9,96.5,63.8,96.5,63.5z"/>
			<path d="M106.5,67.4c-0.5-0.4-0.8-0.8-1-1.4c-0.2-0.6-0.3-1.2-0.2-1.9c0.1-0.7,0.3-1.3,0.7-1.8c0.4-0.5,0.8-0.8,1.4-1
				s1.2-0.3,1.9-0.2c0.7,0.1,1.3,0.3,1.7,0.7c0.5,0.4,0.8,0.8,1,1.4c0.2,0.6,0.3,1.2,0.2,1.9c-0.1,0.7-0.3,1.3-0.7,1.8
				c-0.4,0.5-0.8,0.8-1.4,1.1c-0.6,0.2-1.2,0.3-1.9,0.2C107.6,67.9,107,67.6,106.5,67.4z M109.8,66.2c0.3-0.3,0.6-0.8,0.7-1.6
				c0.1-0.7,0-1.3-0.2-1.7s-0.6-0.7-1.2-0.7c-0.5-0.1-1,0-1.3,0.4c-0.3,0.3-0.6,0.8-0.7,1.5c-0.1,0.7,0,1.3,0.2,1.7s0.6,0.6,1.2,0.7
				C109,66.8,109.4,66.6,109.8,66.2z"/>
			<path d="M119,60.7c0.1-0.1,0.2-0.2,0.4-0.2c0.2,0,0.4,0,0.6,0.1s0.3,0.3,0.3,0.5c0,0.1,0,0.2,0,0.3l-1.6,5.7
				c-0.1,0.2-0.1,0.3-0.3,0.5c-0.1,0.1-0.3,0.2-0.5,0.2s-0.3,0-0.5,0c-0.2-0.1-0.3-0.2-0.4-0.3l-3.5-4.8c-0.1-0.1-0.1-0.2-0.1-0.3
				c0-0.2,0-0.4,0.2-0.6s0.3-0.3,0.6-0.3c0.3-0.1,0.6,0.1,0.8,0.3l2.7,3.9l1.1-4.5C118.8,60.9,118.9,60.8,119,60.7z"/>
			<path d="M128.6,61.9c0.1,0.1,0.3,0.2,0.4,0.4c0.1,0.3,0.1,0.5-0.1,0.9c-0.2,0.3-0.4,0.6-0.7,0.9c-0.3,0.3-0.6,0.5-0.9,0.7
				c-1,0.5-1.9,0.6-2.7,0.4c-0.9-0.3-1.5-0.9-2-1.8c-0.3-0.6-0.5-1.2-0.5-1.8s0.1-1.1,0.5-1.6s0.7-0.9,1.3-1.2
				c0.5-0.3,1.1-0.4,1.6-0.4s1,0.2,1.5,0.5c0.4,0.3,0.8,0.8,1.1,1.4c0.2,0.4,0.1,0.6-0.2,0.8l-3.6,1.9c0.3,0.5,0.7,0.9,1.1,1
				s0.9,0.1,1.4-0.2c0.3-0.1,0.5-0.3,0.6-0.5c0.2-0.2,0.3-0.4,0.5-0.6c0.2-0.3,0.3-0.4,0.4-0.5C128.3,61.8,128.5,61.8,128.6,61.9z
				 M123.5,60.5c-0.1,0.4-0.1,0.8,0.1,1.4l2.8-1.5c-0.3-0.5-0.6-0.8-1-0.9c-0.4-0.1-0.7-0.1-1.2,0.1C123.9,59.8,123.6,60,123.5,60.5
				z"/>
		</g>
		<g>
			<path d="M92.2,12.1c0.2,0,0.4,0.1,0.6,0.3l5.8,5.7c0.2,0.2,0.3,0.4,0.3,0.6s-0.1,0.4-0.2,0.6c-0.2,0.2-0.4,0.3-0.7,0.3l-8.2-1
				l4.3,4.2c0.2,0.2,0.3,0.4,0.3,0.6s-0.1,0.4-0.2,0.6c-0.2,0.2-0.4,0.3-0.6,0.3S93.2,24.1,93,24l-5.8-5.7c-0.2-0.2-0.3-0.4-0.3-0.6
				c0-0.2,0.1-0.4,0.3-0.6c0.2-0.2,0.4-0.3,0.7-0.2l8.2,1l-4.4-4.4c-0.2-0.2-0.3-0.4-0.3-0.6c0-0.2,0.1-0.4,0.2-0.6
				C91.8,12.1,92,12,92.2,12.1z"/>
			<path d="M102.6,10.2c0.6,0.2,1.1,0.8,1.5,1.7l1.4,3.1c0.1,0.2,0.1,0.4,0,0.6s-0.2,0.3-0.5,0.4c-0.2,0.1-0.4,0.1-0.6,0
				s-0.3-0.2-0.4-0.4l-0.1-0.3c0,0.4-0.1,0.7-0.3,1.1c-0.2,0.3-0.5,0.6-0.9,0.8s-0.8,0.3-1.2,0.3c-0.4,0-0.8-0.1-1.1-0.3
				c-0.3-0.2-0.6-0.5-0.7-0.9c-0.2-0.5-0.2-0.9-0.1-1.2c0.1-0.4,0.4-0.7,0.9-1.1c0.5-0.4,1.2-0.7,2.1-1.1l0.3-0.1l-0.4-0.5
				c-0.2-0.4-0.4-0.7-0.7-0.8s-0.6-0.1-1,0.1c-0.2,0.1-0.5,0.3-0.7,0.4c-0.2,0.2-0.5,0.4-0.8,0.7c-0.2,0.2-0.3,0.3-0.4,0.4
				c-0.2,0.1-0.3,0.1-0.4,0s-0.3-0.2-0.3-0.4c-0.1-0.1-0.1-0.3-0.1-0.4s0.1-0.3,0.2-0.5c0.2-0.3,0.5-0.6,0.9-0.9
				c0.4-0.3,0.7-0.5,1.1-0.7C101.3,10,102,9.9,102.6,10.2z M103.3,15c0.1-0.4,0.1-0.8-0.1-1.3l-0.1-0.3l-0.3,0.1
				c-0.6,0.3-1,0.5-1.3,0.7s-0.5,0.4-0.5,0.6c-0.1,0.2-0.1,0.4,0,0.6c0.1,0.3,0.3,0.4,0.6,0.5c0.3,0.1,0.5,0.1,0.8-0.1
				C102.8,15.7,103.1,15.4,103.3,15z"/>
			<path d="M111.5,14.1c0,0.2,0,0.4-0.2,0.5s-0.4,0.2-0.7,0.3h-0.4c-1.5,0.1-2.4-0.6-2.7-2.1l-0.4-3l-0.7,0.1c-0.2,0-0.4,0-0.6-0.1
				c-0.1-0.1-0.2-0.2-0.3-0.4c0-0.2,0-0.4,0.1-0.5c0.1-0.1,0.3-0.2,0.5-0.2l0.7-0.1l-0.2-1.3c0-0.2,0-0.5,0.1-0.6
				c0.1-0.2,0.3-0.3,0.6-0.3c0.3,0,0.5,0,0.6,0.1c0.2,0.1,0.3,0.3,0.3,0.6l0.2,1.3l1.2-0.2c0.2,0,0.4,0,0.6,0.1
				c0.1,0.1,0.2,0.2,0.3,0.4c0,0.2,0,0.4-0.1,0.5s-0.3,0.2-0.5,0.2l-1.1,0.1l0.5,3.1c0.1,0.7,0.5,1,1.1,0.9h0.4
				C111.2,13.5,111.4,13.7,111.5,14.1z"/>
			<path d="M119.1,8.7c0.1,0.2,0.2,0.4,0.2,0.6l-0.7,5.3c0,0.2-0.1,0.4-0.3,0.5c-0.2,0.1-0.4,0.2-0.7,0.1c-0.2,0-0.4-0.1-0.6-0.3
				c-0.1-0.2-0.2-0.4-0.1-0.6V14c-0.3,0.3-0.6,0.6-1,0.7s-0.8,0.2-1.2,0.1c-1.6-0.2-2.3-1.2-2.1-3.1l0.4-3.4c0-0.2,0.1-0.4,0.3-0.6
				c0.2-0.1,0.4-0.2,0.6-0.1c0.3,0,0.5,0.1,0.6,0.3c0.1,0.2,0.2,0.4,0.2,0.6l-0.4,3.4c-0.1,0.5,0,0.8,0.2,1.1s0.4,0.4,0.9,0.5
				s0.9,0,1.2-0.3c0.3-0.3,0.5-0.7,0.6-1.2l0.4-3.1c0-0.2,0.1-0.4,0.3-0.6c0.2-0.1,0.4-0.2,0.6-0.1C118.8,8.4,119,8.5,119.1,8.7z"/>
			<path d="M126.7,11.5c0.1,0.2,0.1,0.4,0,0.6c-0.1,0.2-0.2,0.4-0.4,0.4c-0.2,0.1-0.4,0-0.7,0l-0.4-0.1c-0.5-0.2-1-0.2-1.3,0
				c-0.4,0.2-0.6,0.5-0.8,0.9l-1.2,2.7c-0.1,0.2-0.3,0.4-0.5,0.5c-0.2,0.1-0.4,0-0.7-0.1c-0.3-0.1-0.4-0.2-0.5-0.4s-0.1-0.4,0-0.7
				l2.2-4.9c0.1-0.2,0.3-0.4,0.5-0.4c0.2-0.1,0.4,0,0.6,0.1s0.4,0.2,0.4,0.4c0.1,0.2,0.1,0.4,0,0.6l-0.2,0.5
				c0.3-0.3,0.7-0.5,1.1-0.5c0.4-0.1,0.8,0,1.2,0.1l0.2,0.1C126.5,11.3,126.7,11.4,126.7,11.5z"/>
			<path d="M132.6,16.5c0.1,0.6-0.2,1.3-0.8,2.1l-2.1,2.6c-0.2,0.2-0.3,0.3-0.5,0.3c-0.2,0-0.4-0.1-0.6-0.2
				c-0.2-0.2-0.3-0.3-0.3-0.5s0-0.4,0.2-0.6l0.2-0.2c-0.3,0.2-0.7,0.2-1.1,0.2c-0.4-0.1-0.8-0.2-1.1-0.5c-0.3-0.3-0.6-0.6-0.8-1
				c-0.2-0.4-0.2-0.8-0.2-1.1c0-0.4,0.2-0.7,0.4-1c0.3-0.4,0.7-0.6,1-0.7c0.4-0.1,0.8,0,1.3,0.3c0.5,0.3,1.2,0.7,1.9,1.4l0.3,0.2
				l0.2-0.2c0.3-0.3,0.4-0.7,0.4-0.9c0-0.3-0.2-0.6-0.5-0.8c-0.2-0.2-0.4-0.3-0.7-0.4c-0.3-0.1-0.6-0.2-1-0.4
				c-0.3-0.1-0.4-0.1-0.5-0.2c-0.1-0.1-0.2-0.2-0.2-0.4s0.1-0.3,0.2-0.5c0.1-0.1,0.2-0.2,0.3-0.2s0.3,0,0.5,0
				c0.4,0.1,0.7,0.2,1.2,0.4c0.4,0.2,0.8,0.4,1.1,0.7C132.1,15.2,132.5,15.9,132.6,16.5z M128.6,19.2c0.4-0.1,0.8-0.3,1.1-0.6
				l0.2-0.2l-0.2-0.2c-0.5-0.4-0.9-0.7-1.2-0.8c-0.3-0.2-0.5-0.3-0.7-0.2c-0.2,0-0.4,0.1-0.5,0.3c-0.2,0.2-0.3,0.5-0.2,0.8
				c0,0.3,0.2,0.5,0.4,0.7C127.8,19.1,128.2,19.2,128.6,19.2z"/>
			<path d="M130.5,23.2c0-0.2,0.1-0.4,0.3-0.6l6.6-4.9c0.2-0.2,0.4-0.2,0.6-0.2s0.4,0.2,0.5,0.4c0.1,0.2,0.2,0.4,0.2,0.6
				s-0.1,0.4-0.3,0.6l-6.6,4.9c-0.2,0.2-0.4,0.2-0.6,0.2s-0.4-0.2-0.5-0.4C130.5,23.7,130.4,23.5,130.5,23.2z"/>
		</g>
		<path d="M112.5,72.4c-9.3,0-18-3.6-24.6-10.2C81.2,55.8,77.5,47,77.5,37.5c0-9.3,3.6-18.2,10.2-24.8C94.2,6.2,103,2.5,112.4,2.5
			s18.2,3.6,24.8,10.2c6.6,6.6,10.3,15.4,10.3,24.7s-3.6,18.2-10.2,24.8s-15.4,10.3-24.7,10.4C112.6,72.4,112.5,72.4,112.5,72.4z
			 M112.5,3.5L112.5,3.5c-9.2,0-17.7,3.6-24.1,10.1s-9.9,15-9.9,24.1s3.6,17.6,10.1,24c6.4,6.3,14.9,9.8,23.9,9.8h0.1
			c9.1,0,17.6-3.6,24-10.1c6.4-6.5,9.9-15,9.9-24.1s-3.6-17.6-10.1-24C130,7,121.5,3.5,112.5,3.5z"/>
	</g>
	<path d="M86.8,27.1c-1.7,3.7-2.5,7.6-2.5,11.7c0,7.5,3,14.6,8.3,19.9l0.7-0.7c-5.2-5.1-8-11.9-8-19.2c0-4,0.8-7.8,2.4-11.3"/>
	<path d="M138.2,27.1c1.7,3.7,2.5,7.6,2.5,11.7c0,7.5-3,14.6-8.3,19.9l-0.7-0.7c5.2-5.1,8-11.9,8-19.2c0-4-0.8-7.8-2.4-11.3"/>
	<g>
		<g>
			<path class="st1" d="M107.2,22.8c-0.6,0.1-1.2,0.2-1.7,0.4c0.5,1,1,2,1.7,2.9C107.1,25,107.1,23.8,107.2,22.8z"/>
			<path class="st1" d="M120.6,23.8c-0.2-0.1-0.4-0.3-0.7-0.4c0,0.7-0.1,1.5-0.2,2.2C120.1,25,120.4,24.4,120.6,23.8z"/>
			<path d="M114.3,23.4c-0.6,0.3-1.1,0.6-1.6,1.1c0.2,0.3,0.3,0.6,0.5,0.9C113.7,24.7,114,24,114.3,23.4z"/>
			<path d="M113.3,25.2c0.1,0.2,0.3,0.4,0.4,0.6c1.3,1.8,1.7,3.9,1.7,5.9c0.8-1.4,1.7-2.7,2.8-4c0.4-0.4,0.7-0.9,1.1-1.4
				c0.2-0.3,0.4-0.6,0.5-0.9c0.1-0.8-0.7-2.6-1.1-2.7c-0.5-0.1-1-0.2-1.6-0.2c-1,0-1.9,0.2-2.7,0.6C114,24,113.7,24.7,113.3,25.2z"
				/>
			<path d="M107.2,26.1c0.1,0.1,0.1,0.2,0.2,0.2c3.9,5.3,4.7,12.4,4.9,14.4c0.2-1.4,1-5.1,3.1-8.9c0-2-0.4-4.1-1.7-5.9
				c-0.1-0.2-0.3-0.4-0.4-0.6c-0.2-0.3-0.4-0.6-0.5-0.9c-0.1,0.1-0.2,0.2-0.3,0.3l0,0c-1.2-1.2-2.8-1.9-4.6-1.9c-0.2,0-0.5,0-0.7,0
				C107.1,23.8,107.1,25,107.2,26.1z"/>
			<path d="M118.2,27.9c-1.1,1.3-2.1,2.7-2.8,4c-2.1,3.8-2.9,7.5-3.1,8.9v0.1c0.1,0,0.2,0,0.3,0c1.1-1.2,4.9-5.2,10-8.2
				c0.6-1,1-2.2,1-3.5c0-2.3-1.2-4.2-2.9-5.4c-0.2,0.6-0.5,1.2-0.9,1.8C119.4,26.4,118.8,27.1,118.2,27.9z"/>
			<path d="M111.9,40.9c0.1,0,0.2,0,0.3,0l0,0v-0.1c-0.2-2-1-9.1-4.9-14.4c-0.1-0.1-0.1-0.2-0.2-0.2c-0.7-0.9-1.3-1.9-1.7-2.9
				c-2.3,1-4,3.3-4,6c0,1.6,0.6,3,1.5,4.1C107.7,36.4,111,39.8,111.9,40.9z"/>
			<path d="M111.9,40.9c-1-1-4.2-4.5-9-7.6c0.1,0.2,0.3,0.3,0.4,0.5l0,0l7,7C110.9,40.8,111.4,40.8,111.9,40.9z"/>
			<path d="M112.6,40.9c0.7,0,1.5-0.1,2.2-0.1l6.9-6.9l0,0c0.3-0.3,0.6-0.7,0.9-1.1C117.5,35.5,113.6,39.7,112.6,40.9z"/>
			<path d="M114.7,40.7c-0.7,0.1-1.4,0.1-2.2,0.1c-0.1,0-0.2,0-0.3,0l0,0c-0.1,0-0.2,0-0.3,0c-0.5,0-1.1,0-1.6-0.1l2.2,2.2
				L114.7,40.7z"/>
		</g>
		<g>
			<path d="M106.7,51.7H118c0.1,0,0.2-0.1,0.3-0.2l1.4-8.4c0-0.2-0.1-0.3-0.3-0.3h-14.2c-0.2,0-0.3,0.1-0.3,0.3l1.4,8.4
				C106.5,51.5,106.6,51.7,106.7,51.7z"/>
			<path d="M103.9,40.2h17.2c0.1,0,0.3,0.1,0.3,0.3V43c0,0.1-0.1,0.3-0.3,0.3h-17.2c-0.1,0-0.3-0.1-0.3-0.3v-2.6
				C103.7,40.2,103.8,40.2,103.9,40.2z"/>
		</g>
	</g>
</g>
<g>
	<path class="st0" d="M26,96.9c-0.9-0.4-1.8-0.9-2.7-1.3c-0.6-0.3-0.8-0.2-1.2,0.3c-0.3,0.4-0.6,0.7-0.9,1.1s-0.6,0.4-1,0.2
		c-2.1-0.9-3.7-2.3-4.9-4.3c-0.2-0.3-0.2-0.6,0.1-0.9c0.2-0.3,0.5-0.6,0.7-0.8c0.4-0.5,0.4-0.9,0.1-1.5c-0.4-0.7-0.6-1.5-1-2.2
		c-0.5-1.1-0.9-1.3-2-1c-0.3,0.1-0.6,0.3-0.8,0.5c-0.6,0.6-1,1.3-1.2,2.1c-0.3,1.3,0,2.5,0.6,3.7c1.8,3.1,4.1,5.6,7.4,7.1
		c1.1,0.5,2.2,1,3.5,1c0.1,0,0.2,0,0.4,0c1.8,0,3.3-1.3,3.5-3.1C26.7,97.5,26.5,97.1,26,96.9z"/>
	<path class="st0" d="M15.8,78.7c-10,2.1-15.2,12.9-10.5,22c0.2,0.5,0.3,0.9,0.1,1.4c-0.6,2.1-1.2,4.2-1.8,6.3
		c-0.1,0.2-0.1,0.4-0.1,0.8c0.4-0.1,0.6-0.1,0.9-0.2c2.1-0.5,4.2-1.1,6.2-1.6c0.7-0.2,1.2-0.1,1.8,0.2c3.3,1.5,6.7,1.8,10.2,0.9
		c8-2,12.9-10,11.1-18.1C31.8,81.9,23.7,77.1,15.8,78.7z M21.1,106c-2.9,0.5-5.7,0.1-8.3-1.3c-0.6-0.3-1.2-0.4-1.9-0.2
		c-1,0.3-2,0.5-3,0.8c-0.2,0-0.4,0.1-0.7,0.1c0.3-1.1,0.5-2.1,0.9-3.1c0.3-0.9,0.2-1.6-0.3-2.5c-4.3-8,0.6-15.7,6.5-17.9
		c2.8-1.1,5.7-0.9,8.5,0c4.4,1.4,6.9,4.4,8.1,8.8C32.8,97.7,28.3,104.8,21.1,106z"/>
</g>
<g>
	<path class="st0" d="M58.9,85.6c0-1.8,0.5-2.3,2.3-2.3c1.2,0,2.4,0,3.6,0c0-2.2,0-4.2,0-6.2c-1.2,0-2.4,0-3.5,0
		c-5.3,0-8.6,3.2-8.6,8.6c0,1.3,0,2.6,0,4c-1.8,0-3.4,0-4.9,0c0,2,0,3.9,0,5.9c1.7,0,3.2,0,5,0c0,5,0,10,0,14.9c2.1,0,4.1,0,6.2,0
		c0-5,0-9.9,0-14.9c1.8,0,3.4,0,5,0c0.3-2,0.6-3.9,0.9-5.9c-2.1,0-4,0-5.9,0C58.9,88.1,58.9,86.8,58.9,85.6z"/>
	<path class="st0" d="M63.9,95.5c-1.6,0-3.2,0-5,0c0,5.1,0,10,0,14.9c-2.1,0-4,0-6.2,0c0-4.9,0-9.8,0-14.9c-1.7,0-3.3,0-5,0
		c0-2,0-3.9,0-5.9c1.6,0,3.2,0,4.9,0c0-1.4,0-2.7,0-4c0-5.4,3.2-8.6,8.6-8.6c1.1,0,2.3,0,3.5,0c0,2.1,0,4,0,6.2c-1.2,0-2.4,0-3.6,0
		c-1.8,0-2.3,0.5-2.3,2.3c0,1.3,0,2.5,0,3.9c2,0,3.8,0,5.9,0C64.5,91.6,64.2,93.5,63.9,95.5z"/>
</g>
<g>
	<path class="st0" d="M31.4,121.8c1.1-0.9,2-1.9,2.4-3.4c-0.4,0.2-0.6,0.3-0.8,0.4c-0.8,0.3-1.7,0.7-2.5,1c-0.5,0.2-1,0.1-1.4-0.3
		c-1.2-1-2.5-1.5-4.1-1.6c-4.1-0.1-7.3,3.4-6.8,7.5c0,0.2,0,0.4,0,0.6c-0.1,0-0.2,0.1-0.3,0.1c-1.7-0.2-3.3-0.5-4.9-1.1
		c-2.9-1-5.4-2.8-7.5-5c-0.2-0.2-0.4-0.4-0.7-0.7c-0.5,0.6-0.7,1.2-0.8,1.8C4,121.7,3.9,122.4,4,123c0,0.6,0.2,1.2,0.3,1.8
		c0.2,0.6,0.5,1.2,0.9,1.7c0.3,0.5,0.8,0.9,1.2,1.4c0,0.1-0.1,0.1-0.1,0.2c-0.7-0.2-1.5-0.5-2.4-0.7c0,0.5,0,0.9,0.1,1.3
		c0.5,2.3,1.8,4,4,5c0.2,0.1,0.3,0.2,0.5,0.3c0,0.1,0,0.1-0.1,0.2c-0.7,0-1.4,0-2.2,0c1,2.8,3,4.2,5.9,4.7c-1,0.8-2,1.3-3,1.7
		c-1,0.3-2,0.6-3,0.8S4,141.6,3,141.7c0.2,0.3,0.5,0.5,0.7,0.6c3.6,2,7.4,2.7,11.5,2.2c4.6-0.6,8.5-2.5,11.5-6
		c3.1-3.6,4.8-7.8,4.8-12.7c0-0.6,0.2-0.9,0.6-1.3c0.6-0.5,1.2-1.1,1.7-1.7c0.3-0.3,0.6-0.7,0.8-1.1l-0.1-0.1
		C33.5,121.3,32.6,121.8,31.4,121.8z"/>
</g>
<g>
	<path class="st0" d="M56.2,146.5c-2.2,0-4.4,0-6.6,0c-4.6-0.1-8.5-4-8.6-8.6c-0.1-4.4-0.1-8.8,0-13.2c0.1-4.5,4-8.5,8.6-8.6
		c4.4-0.1,8.9-0.1,13.3,0c4.6,0.1,8.4,4,8.5,8.6c0.1,4.4,0.1,8.8,0,13.2c-0.1,4.6-4,8.5-8.6,8.6C60.7,146.6,58.5,146.5,56.2,146.5z
		 M56.3,144.5c2.1,0,4.1,0,6.2,0c3.9,0,7-3.2,7-7c0-4.1,0-8.2,0-12.3c0-3.9-3-7-6.9-7.1c-4.2-0.1-8.4-0.1-12.6,0
		c-3.9,0.1-6.9,3.1-6.9,7c-0.1,4.2-0.1,8.4,0,12.6c0.1,3.9,3.2,6.9,7.1,6.9C52.2,144.5,54.3,144.5,56.3,144.5z"/>
	<path class="st0" d="M56.3,123.6c4.3,0,7.7,3.4,7.7,7.7c0,4.3-3.4,7.7-7.7,7.7s-7.7-3.4-7.6-7.7C48.6,127,52,123.6,56.3,123.6z
		 M62,131.4c0-3.2-2.5-5.7-5.7-5.7c-3.1,0-5.7,2.5-5.7,5.6c0,3.2,2.5,5.7,5.7,5.7C59.4,137,61.9,134.5,62,131.4z"/>
	<path class="st0" d="M67,123c0,1.1-1,2-2.1,1.9c-1.1-0.1-1.9-1-1.9-2.1c0-1.2,0.9-2,2.1-1.9C66.2,121,67.1,122,67,123z"/>
</g>
<rect x="150" y="75" width="75" height="75"/>
<rect x="116" y="268" width="72" height="72"/>
<g>
	<g>
		<g>
			<g>
				
					<ellipse transform="matrix(0.4678 -0.8838 0.8838 0.4678 110.4987 227.3148)" class="st9" cx="244" cy="21.9" rx="4.3" ry="2.9"/>
				
					<ellipse transform="matrix(0.9657 -0.2595 0.2595 0.9657 3.0095 63.4687)" class="st10" cx="241.9" cy="20.3" rx="2.9" ry="5.5"/>
				
					<ellipse transform="matrix(0.7745 -0.6326 0.6326 0.7745 40.1096 155.9687)" class="st11" cx="238.8" cy="21.7" rx="2.9" ry="5.5"/>
				
					<ellipse transform="matrix(0.4131 -0.9107 0.9107 0.4131 117.1738 229.8786)" class="st12" cx="236.9" cy="24" rx="2.9" ry="5.2"/>
			</g>
			<path class="st13" d="M237.4,31.1c-4.3,10.6,7.2,15.1,8.9,15.8C236,40.5,237.3,31.8,237.4,31.1z"/>
			<path class="st14" d="M240.2,26.9l10.7,18.7c1.3-0.5,2.6-1,3.7-1.5l-10.8-18.9C242.7,25.5,241.3,26.1,240.2,26.9z"/>
			<path class="st14" d="M240.2,26.9c-0.4,0.3-0.8,0.6-1.1,1c-0.7,1.1-1.3,2.2-1.7,3.3l9,15.9c0.1,0,0.1,0,0.1,0s2-0.6,4.3-1.4
				C238.9,38.9,240.2,27,240.2,26.9z"/>
			<path class="st14" d="M246,24.5c0,0-0.9,0.2-2.1,0.6c0,0,3.5,2,6.5,5.9l-3.6-6.3c0,0,12.4,5.4,10.2,18l-3.7-6.5
				c0.9,2.3,1.5,4.9,1.4,7.9c1.6-0.7,2.8-1.5,3-2.2C265.4,26.8,246,24.5,246,24.5z"/>
			<path class="st13" d="M253.2,36.2l3.7,6.5c2.2-12.5-10.2-18-10.2-18l3.6,6.3C251.4,32.5,252.4,34.2,253.2,36.2z"/>
			<path class="st13" d="M237.4,31.1L237.4,31.1L237.4,31.1L237.4,31.1z"/>
			<path class="st14" d="M237.4,31.1c-0.1,0.7-1.3,9.4,8.9,15.8c0.1,0,0.1,0,0.1,0L237.4,31.1L237.4,31.1z"/>
			<path class="st13" d="M240.2,26.9L240.2,26.9L240.2,26.9z"/>
			<path class="st13" d="M240.2,26.9c0,0.1-1.3,12,10.6,18.7l0,0L240.2,26.9L240.2,26.9z"/>
			<path class="st14" d="M250.3,31c-3-3.9-6.5-5.9-6.5-5.9l0,0L254.6,44l0,0c0.1-3-0.5-5.6-1.4-7.9L250.3,31z"/>
			<path class="st13" d="M250.3,31l2.9,5.1C252.4,34.2,251.4,32.5,250.3,31z"/>
			<path class="st13" d="M263.1,42.9L263.1,42.9L263.1,42.9z"/>
			<path class="st13" d="M254.6,44L254.6,44L254.6,44z"/>
			<path class="st15" d="M238.7,30.2c0,0,0.3,0,0.3,0.3s-0.1,0.3-0.1,0.4s-0.5,0.3-0.5,0.1c0-0.2-0.1-0.2,0-0.5
				C238.6,30.2,238.7,30.2,238.7,30.2z"/>
			<path class="st15" d="M244.2,26.5c0,0,0.3,0,0.3,0.3s-0.1,0.3-0.1,0.4s-0.5,0.3-0.5,0.1c0-0.2-0.1-0.2,0-0.5
				C244.1,26.4,244.2,26.5,244.2,26.5z"/>
			<path class="st15" d="M251,26.1c0,0,0.3,0,0.3,0.3s-0.1,0.3-0.1,0.4s-0.5,0.3-0.5,0.1c0-0.2-0.1-0.2,0-0.5
				C250.9,26.1,251,26.1,251,26.1z"/>
			<path class="st15" d="M256.5,30.6c0,0,0.3,0,0.3,0.3s-0.1,0.3-0.1,0.4s-0.5,0.3-0.5,0.1s-0.1-0.2,0-0.5
				C256.4,30.5,256.5,30.6,256.5,30.6z"/>
			<path class="st15" d="M258.2,37.8c0,0,0.3,0,0.3,0.3s-0.1,0.3-0.1,0.4c0,0.1-0.5,0.3-0.5,0.1s-0.1-0.2,0-0.5
				C258.1,37.7,258.2,37.8,258.2,37.8z"/>
			<path class="st15" d="M246.7,30.9c0,0,0.3,0,0.3,0.3s-0.1,0.3-0.1,0.4s-0.5,0.3-0.5,0.1c0-0.2-0.1-0.2,0-0.5
				C246.6,30.9,246.7,30.9,246.7,30.9z"/>
			<path class="st15" d="M249.2,35.3c0,0,0.3,0,0.3,0.3s-0.1,0.3-0.1,0.4c0,0.1-0.5,0.3-0.5,0.1s-0.1-0.2,0-0.5
				C249.1,35.3,249.2,35.3,249.2,35.3z"/>
			<path class="st15" d="M251.6,40.4c0,0,0.3,0,0.3,0.3s-0.1,0.3-0.1,0.4c0,0.1-0.5,0.3-0.5,0.1s-0.1-0.2,0-0.5
				C251.5,40.4,251.6,40.4,251.6,40.4z"/>
			<path class="st15" d="M240.5,37.4c0,0,0.3,0,0.3,0.3s-0.1,0.3-0.1,0.4c0,0.1-0.5,0.3-0.5,0.1s-0.1-0.2,0-0.5
				C240.4,37.3,240.5,37.4,240.5,37.4z"/>
			<path class="st15" d="M244.2,42.8c0,0,0.3,0,0.3,0.3s-0.1,0.3-0.1,0.4c0,0.1-0.5,0.3-0.5,0.1s-0.1-0.2,0-0.5
				C244.1,42.8,244.2,42.8,244.2,42.8z"/>
		</g>
		<g>
			<path class="st14" d="M261.6,42c-1,0.1-2,0.2-3,0.4l1.5,47.1l10.2-0.3c0,0,0.9,0.1,2.3,0.1l-1.5-46.2
				C265.9,41.8,261.6,42,261.6,42z"/>
			<path class="st14" d="M258.6,42.4c-5,0.8-9.9,2.4-13.8,5.6l1.3,38.7c5.3,2.7,10.7,2.9,10.7,2.9l3.5-0.1
				C244.9,64.8,258.6,42.4,258.6,42.4z"/>
			<path class="st14" d="M271.1,43.1c-0.4,0.2,12.3,15.4,1.5,46.2c2.3-0.1,6-0.5,9.3-2.8c0.6-13.8,0.4-26.9-1.3-39
				C277.6,45.2,274.2,43.8,271.1,43.1z"/>
			<path class="st14" d="M289.7,66.2c-0.3-9.5-4.2-15.3-9-18.8c0.1,0.2,10.8,20,1.3,39C286.3,83.5,290.1,77.7,289.7,66.2z"/>
			<path class="st14" d="M244.8,48c-5,4-8.5,10.4-8.9,20.7c-0.4,10.1,4.8,15.3,10.1,18C234.9,67.4,244.7,48.1,244.8,48z"/>
			<path class="st13" d="M272.6,89.2L272.6,89.2L272.6,89.2z"/>
			<path class="st13" d="M239.5,44.1L239.5,44.1L239.5,44.1z"/>
			<path class="st13" d="M271.1,43.1L271.1,43.1l1.5,46.2l0,0C283.5,58.5,270.7,43.2,271.1,43.1z"/>
			<path class="st13" d="M258.6,42.4c0,0.1-13.7,22.5,1.5,47.1L258.6,42.4L258.6,42.4z"/>
			<path class="st13" d="M280.7,47.4L280.7,47.4L280.7,47.4z"/>
			<path class="st13" d="M281.9,86.4L281.9,86.4L281.9,86.4z"/>
			<path class="st13" d="M280.7,47.4L280.7,47.4c1.6,12.1,1.9,25.2,1.3,39l0,0C291.5,67.4,280.8,47.6,280.7,47.4z"/>
			<path class="st13" d="M244.8,48L244.8,48L244.8,48z"/>
			<path class="st13" d="M246,86.7L246,86.7L246,86.7z"/>
			<path class="st13" d="M244.8,48c-0.1,0.1-9.9,19.4,1.3,38.7l0,0L244.8,48L244.8,48z"/>
			<path class="st13" d="M243.9,51.2L243.9,51.2c-0.1-0.1-0.1-0.1-0.2-0.1C243.8,51.2,243.9,51.2,243.9,51.2z"/>
			<path class="st13" d="M247.7,48.6L247.7,48.6C247.7,48.5,247.7,48.5,247.7,48.6C247.7,48.5,247.7,48.5,247.7,48.6z"/>
			<path class="st15" d="M249.4,48.9c0,0,0.6-0.2,0.8,0.4c0.2,0.6,0,0.6,0,0.8s-0.8,0.9-1,0.4s-0.4-0.4-0.2-1
				C249.2,48.9,249.4,48.9,249.4,48.9z"/>
			<path class="st15" d="M264.5,47c0,0,0.6-0.2,0.8,0.4c0.2,0.6,0,0.6,0,0.8s-0.8,0.9-1,0.4c-0.2-0.5-0.4-0.4-0.2-1
				C264.2,47,264.5,47,264.5,47z"/>
			<path class="st15" d="M267,57.7c0,0,0.6-0.2,0.8,0.4c0.2,0.6,0,0.6,0,0.8s-0.8,0.9-1,0.4c-0.2-0.4-0.4-0.4-0.2-1
				C266.8,57.7,267,57.7,267,57.7z"/>
			<path class="st15" d="M265.2,71.4c0,0,0.6-0.2,0.8,0.4s0,0.6,0,0.8s-0.8,0.9-1,0.4s-0.4-0.4-0.2-1
				C265,71.4,265.2,71.4,265.2,71.4z"/>
			<path class="st15" d="M267.1,84.2c0,0,0.6-0.2,0.8,0.4c0.2,0.6,0,0.6,0,0.8s-0.8,0.9-1,0.4c-0.2-0.4-0.4-0.4-0.2-1
				C266.9,84.2,267.1,84.2,267.1,84.2z"/>
			<path class="st15" d="M249.8,59.7c0,0,0.6-0.2,0.8,0.4c0.2,0.6,0,0.6,0,0.8s-0.8,0.9-1,0.4s-0.4-0.4-0.2-1
				C249.6,59.7,249.8,59.7,249.8,59.7z"/>
			<path class="st15" d="M248.7,71.9c0,0,0.6-0.2,0.8,0.4s0,0.6,0,0.8c0,0.2-0.8,0.9-1,0.4s-0.4-0.4-0.2-1
				C248.5,71.9,248.7,71.9,248.7,71.9z"/>
			<path class="st15" d="M250.5,82.6c0,0,0.6-0.2,0.8,0.4s0,0.6,0,0.8c0,0.2-0.8,0.9-1,0.4s-0.4-0.4-0.2-1
				C250.3,82.6,250.5,82.6,250.5,82.6z"/>
			<path class="st15" d="M276.4,46.6c0,0-0.6-0.2-0.8,0.4s0,0.6,0,0.8s0.9,0.8,1,0.4c0.2-0.4,0.4-0.4,0.2-1S276.4,46.6,276.4,46.6z"
				/>
			<path class="st15" d="M279.7,61.6c0,0-0.6-0.2-0.8,0.4c-0.2,0.6,0,0.6,0,0.8s0.9,0.8,1,0.4c0.2-0.4,0.4-0.4,0.2-1
				C279.9,61.5,279.7,61.6,279.7,61.6z"/>
			<path class="st15" d="M278.8,78.1c0,0-0.6-0.2-0.8,0.4s0,0.6,0,0.8c0,0.2,0.9,0.8,1,0.4c0.2-0.4,0.4-0.4,0.2-1
				C279,78.1,278.8,78.1,278.8,78.1z"/>
			<path class="st15" d="M241.1,52.8c0,0,0.4-0.1,0.2,0.5c-0.1,0.6-0.2,0.6-0.3,0.8s-0.7,0.6-0.6,0.2c0.1-0.4,0-0.5,0.3-1
				C241,52.7,241.1,52.8,241.1,52.8z"/>
			<path class="st15" d="M239,62.9c0,0,0.3-0.2,0.3,0.5c0,0.7-0.1,0.6-0.1,0.8c0,0.2-0.5,0.8-0.6,0.3s-0.1-0.4,0-1
				S239,62.9,239,62.9z"/>
			<path class="st15" d="M237.4,70.9c0,0,0.2-0.3,0.5,0.2s0.3,0.6,0.3,0.8c0.1,0.2,0,0.9-0.3,0.6s-0.4-0.3-0.5-0.9
				C237.3,71,237.4,70.9,237.4,70.9z"/>
			<path class="st15" d="M239.6,78.9c0,0,0.1-0.3,0.6,0.1c0.4,0.4,0.4,0.5,0.5,0.7s0.2,0.9-0.2,0.6c-0.3-0.3-0.4-0.2-0.7-0.8
				C239.5,78.9,239.6,78.9,239.6,78.9z"/>
			<path class="st15" d="M283.7,51.4c0,0-0.4-0.1-0.2,0.5c0.2,0.6,0.3,0.6,0.4,0.7s0.7,0.6,0.6,0.2c-0.1-0.4,0-0.5-0.4-1
				C283.8,51.4,283.7,51.4,283.7,51.4z"/>
			<path class="st15" d="M287.5,58.5c0,0-0.2-0.3-0.5,0.3s-0.2,0.6-0.3,0.8c-0.1,0.2,0.1,0.9,0.3,0.6c0.2-0.4,0.3-0.3,0.4-0.9
				C287.6,58.6,287.5,58.5,287.5,58.5z"/>
			<path class="st15" d="M288.3,67.8c0,0-0.3-0.2-0.4,0.4s0,0.6,0,0.8s0.4,0.8,0.5,0.4s0.2-0.4,0.2-1
				C288.4,67.8,288.3,67.8,288.3,67.8z"/>
			<path class="st15" d="M286.8,78c0,0-0.1-0.3-0.6,0.1s-0.3,0.5-0.4,0.7s-0.1,0.9,0.2,0.6c0.3-0.3,0.4-0.2,0.6-0.8
				C286.9,78.1,286.8,78,286.8,78z"/>
		</g>
	</g>
	<g>
		<rect x="228" y="87" class="st16" width="69" height="12"/>
		<polygon class="st17" points="240,135 285,135 291.3,99 234.7,99 		"/>
	</g>
</g>
<g>
	<path class="st18" d="M81.4,90h62.1c1.1,0,2,0.9,2,2v7.5c0,1.1-0.9,2-2,2H81.4c-1.1,0-2-0.9-2-2V92C79.6,90.9,80.4,90,81.4,90z"/>
	<path class="st19" d="M91.8,135h40.7c1,0,1.8-0.7,2-1.6l5.5-31.9H84.4l5.5,31.9C89.9,134.3,90.8,135,91.8,135z"/>
</g>
</svg>
