<?xml version="1.0" encoding="utf-8"?>
<!-- Generator: Adobe Illustrator 21.0.2, SVG Export Plug-In . SVG Version: 6.00 Build 0)  -->
<svg version="1.1" id="Capa_1" xmlns="http://www.w3.org/2000/svg" xmlns:xlink="http://www.w3.org/1999/xlink" x="0px" y="0px"
	 viewBox="0 0 255 255" style="enable-background:new 0 0 251 248;" xml:space="preserve">
<style type="text/css">
	.st0{fill:#8ED5D5;fill-opacity:0.5;stroke:#000000;stroke-miterlimit:10;}
	.st1{fill:#8CDAD9;fill-opacity:0.5;stroke:#000000;stroke-miterlimit:10;}
	.st2{fill:#A6E6E0;fill-opacity:0.5;stroke:#000000;stroke-miterlimit:10;}
	.st3{fill:#7ACBD4;fill-opacity:0.5;stroke:#000000;stroke-miterlimit:10;}
	.st4{fill:#7DCFC8;fill-opacity:0.5;stroke:#000000;stroke-miterlimit:10;}
	.st5{fill:#ADEDE8;fill-opacity:0.5;stroke:#000000;stroke-miterlimit:10;}
	.st6{fill:#76DCC9;fill-opacity:0.5;stroke:#000000;stroke-miterlimit:10;}
	.st7{fill:#97EFE4;fill-opacity:0.5;stroke:#000000;stroke-miterlimit:10;}
	.st8{fill:#18B298;fill-opacity:0.5;stroke:#000000;stroke-miterlimit:10;}
	.st9{fill:#48C2AE;fill-opacity:0.5;stroke:#000000;stroke-miterlimit:10;}
	.st10{fill:#8ED7D0;fill-opacity:0.5;stroke:#000000;stroke-miterlimit:10;}
	.st11{fill:#24B5A3;fill-opacity:0.5;stroke:#000000;stroke-miterlimit:10;}
	.st12{fill:#30D6BA;fill-opacity:0.5;stroke:#000000;stroke-miterlimit:10;}
	.st13{fill:#2FC19E;fill-opacity:0.5;stroke:#000000;stroke-miterlimit:10;}
	.st14{fill:#22B2AA;fill-opacity:0.5;stroke:#000000;stroke-miterlimit:10;}
	.st15{fill:#1C7F86;fill-opacity:0.5;stroke:#000000;stroke-miterlimit:10;}
	.st16{fill:#076973;fill-opacity:0.5;stroke:#000000;stroke-miterlimit:10;}
</style>
<path class="st0" d="M206.7,87.1c4.8,4.6,10.1,9.8,17.2,15.4c3.6,2.8,6.7,4.9,9.4,6.6c3-16,9.1-31.2,9.1-31.2S227,66.6,212.6,64.6
	c-2.3-0.3-4.2-0.1-5.9,0.5c0.2,2,0.5,3.6,0.8,4.6C208.4,73.2,207.7,80.3,206.7,87.1z"/>
<path class="st1" d="M87,53.2c13.9-15.6,18-30.7,18-30.7c3.9,3.9,9.6,10.4,17.5,15.6c0.3-1.7,1.2-3.6,3-5.4c2.8-2.8,5.9-5.7,9.5-8.2
	c-9.3-14.8-32.1-16.4-32.1-16.4S92.7,8.2,84.5,2C80.4,16.4,74.3,20.5,64,36.9c-3.9,6.2-5.1,10.9-5.2,14.4
	C67.6,49.8,79.2,50.1,87,53.2z"/>
<path class="st2" d="M206.7,87.1c-3.3-3.2-6.4-6.1-9.6-8.5c-3.5-2.6-7.1-4.7-11.5-6.1c-0.2-5.3,0.2-10.2,1.5-15.1
	c-2,2-20.5,2-20.5,2s-3.7-0.8-9.2-1c-3.3-4.5-9.5-10.8-19.5-13.3c-2.5-0.6-4.9-1.5-7.1-2.4c-3-1.3-5.7-2.8-8.2-4.5
	c0.3-1.7,1.2-3.6,3-5.4c2.8-2.8,5.9-5.7,9.5-8.2c6.8-4.7,15.3-8.2,27.4-8.2c18.5,0,41,0,41,0s1.6,34.6,3.3,48.7
	c0.2,2,0.5,3.6,0.8,4.6C208.4,73.2,207.7,80.3,206.7,87.1z"/>
<path class="st3" d="M63.8,167.2c-22.3-15.5-22.4-15.5-22.4-15.5s0-8.6,3.6-19.4c-3.4-1.1-7-4.3-9.8-11.3c-0.3-2.8-0.7-5.4-1.3-8
	c-4.1,0.9-16.8,4.6-25.3,18.2c0,18.5-6.1,34.9-6.1,34.9s29,30.8,49.5,27.7C53.5,176.1,60.2,169.5,63.8,167.2z"/>
<path class="st4" d="M228.5,134.8c-7.4,7.4-15.7,15.7-23.1,23.1c-6.1,6.1-11.8,8.8-16.6,9.8c0.8,5.6-1.5,12.3-4.2,18.1
	c3.9,2.1,7.6,5.6,8.6,11.1c0.1,0.8,0.2,1.5,0.3,2.2c10.4-0.1,25.9-5.3,30.5-8.4c6.2-4.1,20.5-2,20.5-2s0-16.4-4.1-34.9
	C238.1,143.7,232.9,138,228.5,134.8z"/>
<path class="st5" d="M87,53.2c-0.9,1-1.9,2.1-2.9,3.1c-2.4,2.4-5,4.8-7.8,7.2c-8.2,14.3-7.7,27-5.2,36.3c-1.7,0.6-3.5,1.5-5.1,2.7
	c-5.8,4.3-10.2,9.3-13.6,14.5c-3.4,5.2-5.8,10.5-7.4,15.3c-3.4-1.1-7-4.3-9.8-11.3c-0.3-2.8-0.7-5.4-1.3-7.9
	c-3.8-16.2-13-26.9-13-26.9s-4.1-10.2-2-12.3c2-2,22.5-12.3,28.7-18.5c1.8-1.8,6-3.2,11.3-4.1C67.6,49.8,79.2,50.1,87,53.2z"/>
<path class="st6" d="M157.3,58.4c-4.4-0.2-9.9-0.1-15.6,1.1c-7.1,1.4-14.4,4.4-20.2,10.2c-10.2,10.2-12.4,19.5-12.7,25.2
	c-9.3,1.2-17.3,4.1-23,6c-2.4-0.9-4.8-1.6-7.1-1.8c-2.5-0.2-5,0-7.4,0.8c-2.5-9.2-3-22,5.2-36.3c2.9-2.3,5.5-4.8,7.8-7.2
	c1-1,2-2.1,2.9-3.1c13.9-15.6,18-30.7,18-30.7c3.9,3.9,9.6,10.4,17.5,15.6c2.5,1.7,5.2,3.2,8.2,4.5c2.2,1,4.6,1.8,7.1,2.4
	C147.8,47.6,153.9,53.8,157.3,58.4z"/>
<path class="st7" d="M111.3,227.8c-3.3,2.7-7,4.6-10.4,3.9c-10.3-2-36.9,2-36.9,2s-2-8.2-12.3-32.8c0-2.6,0.1-5,0.3-7.2
	c1.5-17.6,8.2-24.2,11.8-26.5c1.3,0.9,2.8,1.9,4.3,3c0.8,0.6,1.7,1.1,2.5,1.7c3.4,2.2,6.6,3.9,9.5,5.2c-0.1,5.1,1.6,12,8.5,19.8
	c5.6,6.4,13.3,12.4,20.6,17.4c-0.2,1-0.2,2-0.1,3.1C109.4,221.4,110.2,224.9,111.3,227.8z"/>
<path class="st8" d="M248.5,114.8c0,0-8.9,8.9-20,20l-23.1,23.1c-6.1,6.1-11.8,8.8-16.6,9.8c-0.5-3.3-2-6.2-5.2-8.3
	c-0.8-0.6-1.7-1.1-2.8-1.5c-2.2-0.9-5-1.8-8.1-2.8c-0.2-0.1-0.5-0.2-0.8-0.2c0.8-0.4,1.6-0.9,2.4-1.4c6.2-3.9,12.9-9.7,16.6-18.1
	c6-13.5,2.1-29.1-1.2-40.6c-1.2-4.2-2.4-7.9-2.9-10.7c-0.8-4.1-1.3-7.9-1.5-11.5c4.4,1.4,8.1,3.5,11.5,6.1c3.2,2.4,6.3,5.3,9.6,8.5
	c4.8,4.6,10.1,9.8,17.2,15.4c3.6,2.8,6.7,4.9,9.4,6.6C244.5,116.1,248.5,114.8,248.5,114.8z"/>
<path class="st9" d="M191.1,135.3c-3.7,8.4-10.4,14.2-16.6,18.1c2.7-2.9,5-6.8,6.4-12c4.1-8.2,6.1-18.4,6.1-18.4s-11.1-4.2-21.6-9.2
	c-7.5-3.7-14.8-7.8-17.4-11.3c-6.9,0-12.9,1-16,3.8c-0.1-3.4-1.4-7.9-6.3-10.3c-2.1-1-4.8-1.7-8.5-1.7c-3,0-5.9,0.2-8.6,0.6
	c0.3-5.7,2.6-15,12.7-25.2c5.8-5.8,13.2-8.8,20.2-10.2c5.7-1.2,11.2-1.3,15.6-1.1c5.5,0.3,9.2,1,9.2,1s18.5,0,20.5-2
	c-1.2,4.9-1.7,9.8-1.5,15.1c0.2,3.6,0.6,7.4,1.5,11.5c0.6,2.8,1.7,6.4,2.9,10.7C193.2,106.2,197.1,121.8,191.1,135.3z"/>
<path class="st10" d="M189,213.2c0,0-16.4,24.6-14.3,32.8c-10.3-6.1-22.6-8.2-34.9-6.1c-10.2,1.7-23.3,2-28.5-12.1
	c-1.1-2.9-1.9-6.3-2.2-10.5c-0.1-1.1,0-2.1,0.1-3.1c3.2,2.2,6.4,4.2,9.3,6c7.5,4.5,13.1,7.4,13.1,7.4s4.1,2.1,8.2-4.1
	c4.1-6.1,36.9-24.6,36.9-24.6s2.1-2.9,4.6-7.1c1.1-1.8,2.2-3.8,3.2-6c3.9,2.1,7.7,5.6,8.6,11c0.1,0.8,0.2,1.5,0.3,2.2
	C194.5,209.6,189,213.2,189,213.2z"/>
<path class="st11" d="M184.6,185.7c-1,2.2-2.1,4.2-3.2,6c-2.5,4.2-4.6,7.1-4.6,7.1s-32.8,18.4-36.9,24.6c-4.1,6.2-8.2,4.1-8.2,4.1
	s-5.6-2.8-13.1-7.4c-2.9-1.7-6.1-3.8-9.3-6c-7.4-5-15.1-11.1-20.6-17.4c-6.8-7.8-8.6-14.7-8.5-19.8c13.3,6,22.3,4.2,26.4,2.6
	c0.2,0.9,0.3,1.9,0.6,2.8c3.7,0.3,7.1,0.5,10.1,0.5c18.2,0.2,25.2-4.2,30.4-15.7c2-0.2,4.2-0.6,6.7-1.2c6.1-2,10.2-4.1,10.2-4.1
	s-0.4-0.6-1.1-1.5c-0.2-0.4-0.5-0.8-0.8-1.2c1.3-0.5,3-1.1,5-2c1.4-0.6,2.9-1.4,4.5-2.3c0.3,0.1,0.5,0.2,0.8,0.2
	c3.1,0.9,5.8,1.9,8.1,2.8c1.1,0.4,2,0.9,2.8,1.5c3.1,2.1,4.7,5,5.2,8.3C189.6,173.2,187.4,179.9,184.6,185.7z"/>
<path class="st12" d="M106.5,179.6c-4.1,1.6-13.1,3.4-26.4-2.6c-3-1.3-6.1-3-9.5-5.2c-0.8-0.5-1.7-1.1-2.5-1.7c-1.5-1-3-2-4.3-3
	c-22.3-15.5-22.4-15.5-22.4-15.5s0-8.6,3.6-19.4c1.6-4.9,4-10.2,7.4-15.3c3.4-5.1,7.8-10.1,13.6-14.5c1.6-1.2,3.4-2.1,5.1-2.7
	c2.4-0.8,4.9-1,7.4-0.8c2.3,0.2,4.7,0.9,7.1,1.8c-3,1-5.5,1.7-7.3,1.7c0,2.5,0,7,0.3,12.3c0.7,12,2.8,28.4,9.9,36.9
	c1.6,1.9,3.4,3.4,5.2,4.5c3.9,2.4,8,3.1,11.7,3.1c-0.4,2.9-0.5,6.3-0.2,10.3C105.4,172.6,105.8,175.9,106.5,179.6z"/>
<path class="st13" d="M104.4,115.2c-5.5,15.7,4.7,30.4,4.7,30.4s0.6,0.2,1.6,0.4c-0.6,0.6-1.8,2.1-2.9,4.7c-0.9,2.1-1.8,5-2.3,8.8
	c-3.6,0-7.8-0.8-11.7-3.1c-1.8-1.1-3.6-2.6-5.2-4.5c-7.1-8.5-9.3-24.9-9.9-36.9c-0.3-5.3-0.3-9.8-0.3-12.3c1.8,0,4.2-0.7,7.3-1.7
	c5.8-1.9,13.7-4.7,23-6c2.8-0.3,5.6-0.6,8.6-0.6c3.6,0,6.4,0.6,8.5,1.7c4.9,2.4,6.1,6.9,6.3,10.3c-1.4,1.2-2.3,2.8-2.4,4.8
	c-5.9-2.6-13-3.5-20.1-4.4c-0.1,0-0.2,0-0.4,0c-0.1,0.1-0.2,0.3-0.3,0.4c-1.7,2.3-3,4.6-4,7C104.7,114.3,104.5,114.8,104.4,115.2z"
	/>
<path class="st8" d="M187,123c0,0-2,10.3-6.1,18.4c-1.4,5.2-3.7,9.1-6.4,12c-0.8,0.5-1.6,1-2.4,1.4c-1.6,0.9-3.1,1.6-4.5,2.3
	c-2,0.9-3.7,1.6-5,2c-1.2-1.9-2.8-4.6-4.2-7.7c-0.9-1.9-1.6-3.9-2.1-6c-1.4-5.7-5.8-13.3-12.4-13.4c-1.3-10.9-6-16.8-12.6-20.3
	c-0.5-0.3-1.1-0.6-1.6-0.8c0.2-2,1-3.6,2.4-4.8c3.2-2.8,9.1-3.8,16-3.8c2.6,3.4,9.8,7.6,17.4,11.3C175.9,118.8,187,123,187,123z"/>
<path class="st14" d="M139.4,133.1c0.3-2.4,0.4-4,0.4-4s-1.3-0.3-3.6-1.2c-2.2-0.8-5.3-2-9.2-3.9c-2.8-1.4-6.1-3-9.7-5.1
	c1.4,2.1,1.4,5.6,0.6,9.1c-0.9,4.4-2.8,9.1-3.9,11.6c-0.5,1.2-0.9,1.9-0.9,1.9c0.7,0.8,1.4,1.4,2,2.1c-1.4,0.6-2.7,1.2-4.1,2
	c0,0-0.2,0.1-0.4,0.4c-1-0.2-1.6-0.4-1.6-0.4s-10.3-14.7-4.7-30.4c0.1-0.4,0.3-0.8,0.5-1.2c0.9-2.3,2.2-4.7,4-7
	c0.2-0.1,0.4-0.2,0.6-0.3c7.1,0.9,14.2,1.8,20.1,4.4c0.6,0.2,1.1,0.5,1.6,0.8c6.5,3.4,11.3,9.3,12.6,20.3
	C142.4,132.1,141,132.4,139.4,133.1z"/>
<path class="st14" d="M147.5,167.2c-5.2,11.5-12.2,16-30.4,15.7c-3,0-6.4-0.2-10.1-0.5c-0.2-1-0.4-1.9-0.6-2.8
	c-0.7-3.7-1.1-7-1.3-10c-0.3-4-0.1-7.4,0.2-10.3c0.5-3.8,1.4-6.7,2.3-8.8c1.1-2.6,2.3-4,2.9-4.7c0.3-0.3,0.4-0.4,0.4-0.4
	c1.3-0.8,2.7-1.5,4.1-2c1.4,1.3,2.6,2.5,3.8,3.4c0.3,0.2,0.5,0.4,0.8,0.6c0.5,0.4,1.1,0.8,1.6,1.1c0.1,0,0.1,0.1,0.1,0.1
	c0.3,1.7,1.1,3.3,2.2,4.7c0.2,0.3,0.5,0.6,0.7,0.8c1,1,2,1.6,3,1.6c0.5,0,1.2,0,1.9-0.1c0.1,0.1,0.1,0.1,0.1,0.1
	S127.9,169.3,147.5,167.2z"/>
<path class="st15" d="M164.4,161.9c0,0-4.1,2-10.2,4.1c-2.5,0.6-4.7,0.9-6.7,1.2c-19.6,2.1-17.9-11.4-17.9-11.4s-0.1,0-0.1-0.1
	c3-0.2,7.3-0.8,10.5-1.3c0.8-0.1,1.5-0.2,2.1-0.3c1.2-0.2,1.9-0.3,1.9-0.3s0.2-1.7,0.2-4.1c0-0.1,0-0.2,0-0.3
	c-0.1-2.4-0.5-5.4-1.6-8.1c-0.8-1.9-2-3.6-3.7-4.7c-0.1-0.1-0.2-0.1-0.3-0.2c-0.8-0.5-1.6-0.8-2.6-1c0.7-0.6,1.4-1.1,2.1-1.5
	c0.5-0.3,0.9-0.5,1.4-0.7c1.6-0.7,3-1,4.4-1c6.6,0.1,11,7.7,12.4,13.4c0.5,2,1.3,4.1,2.1,6c1.4,3,3,5.8,4.2,7.7
	c0.3,0.5,0.6,0.9,0.8,1.2C164,161.4,164.4,161.9,164.4,161.9z"/>
<path class="st15" d="M139.8,129.1c0,0-0.1,1.6-0.4,4c-0.5,0.2-0.9,0.4-1.4,0.7c-0.7,0.4-1.4,0.9-2.1,1.5c-0.1,0-0.1,0-0.2-0.1
	c-3.1-0.6-5.8-0.1-8.1,0.9c-0.8,0.4-1.6,0.8-2.2,1.4c-1.4,1.1-2.4,2.5-3.1,4.1c-0.5,1.2-0.8,2.4-0.9,3.7c-0.1,0.8-0.1,1.5,0,2.3
	c0,0.3,0.1,0.6,0.1,0.9v0.1l-0.1-0.1c-0.5-0.3-1.1-0.7-1.6-1.1c-0.3-0.2-0.5-0.4-0.8-0.6c-1.2-0.9-2.5-2.1-3.8-3.4
	c-0.6-0.6-1.3-1.3-2-2.1c0,0,0.3-0.7,0.9-1.9c1.1-2.5,3-7.1,3.9-11.6c0.7-3.5,0.8-7-0.6-9.1c3.6,2.1,6.9,3.8,9.7,5.1
	c3.9,1.9,7,3.1,9.2,3.9C138.6,128.8,139.8,129.1,139.8,129.1z"/>
<path class="st16" d="M143.9,153.7c0,0-0.7,0.1-1.9,0.3c-0.6,0.1-1.3,0.2-2.1,0.3c-3.2,0.5-7.5,1.1-10.5,1.3
	c-0.8,0.1-1.4,0.1-1.9,0.1c-1,0-2.1-0.6-3-1.6c-0.3-0.3-0.5-0.5-0.7-0.8c-1.1-1.4-1.9-3-2.2-4.7v-0.1c-0.1-0.3-0.1-0.6-0.1-0.9
	c-0.1-0.8-0.1-1.6,0-2.3c0.1-1.3,0.4-2.5,0.9-3.7c0.7-1.6,1.7-3,3.1-4.1c0.7-0.5,1.4-1,2.2-1.4c2.3-1,5-1.5,8.1-0.9
	c0.1,0,0.1,0,0.2,0.1c1,0.2,1.8,0.6,2.6,1c0.1,0.1,0.2,0.1,0.3,0.2c1.7,1.1,2.9,2.8,3.7,4.7c1.1,2.6,1.5,5.6,1.6,8.1
	c0,0.1,0,0.2,0,0.3C144.2,152,143.9,153.7,143.9,153.7z"/>
</svg>
