<?xml version="1.0" encoding="utf-8"?>
<!-- Generator: Adobe Illustrator 22.1.0, SVG Export Plug-In . SVG Version: 6.00 Build 0)  -->
<svg version="1.1" id="Capa_1" xmlns="http://www.w3.org/2000/svg" xmlns:xlink="http://www.w3.org/1999/xlink" x="0px" y="0px"
	 viewBox="0 0 100 100" style="enable-background:new 0 0 100 100;" xml:space="preserve">
<style type="text/css">
	.st0{fill:none;}
	.st1{fill:#007934;}
	.st2{fill:#124734;}
	.st3{fill:#10312B;}
	.st4{fill:#452E09;}
	.st5{fill:#502C1E;}
	.st6{fill:#3D271A;}
</style>
<g>
	<g>
		<path class="st0" d="M31.8,0.8c-2.1,0.3-4.1,0.7-5.9,1.5c1.6,3.3,3.6,6.7,5.9,9.9C31.4,8.2,31.4,4.3,31.8,0.8z"/>
		<path class="st0" d="M77.7,4.3c-0.7-0.5-1.5-1-2.3-1.4c0,2.5-0.3,4.9-0.5,7.6C75.9,8.4,76.9,6.4,77.7,4.3z"/>
		<path class="st1" d="M56.3,2.7c-1.9,1-3.8,2.2-5.4,3.6c0.5,1.1,1.2,2.1,1.8,3.2C54.1,7.2,55.2,4.9,56.3,2.7z"/>
		<path class="st2" d="M52.7,9.4c0.4,0.7,1,1.5,1.4,2.2c4.4,6.3,5.8,13.3,5.8,20.2c2.6-4.7,5.8-9.3,9.6-13.7
			c1.4-1.5,2.5-3.2,3.6-4.7c0.7-1,1.2-1.9,1.8-2.9c0.4-2.6-2.2-8.8-3.7-9.2c-1.8-0.4-3.6-0.7-5.5-0.7c-3.3,0-6.5,0.7-9.3,2.1
			C55.2,4.9,54.1,7.2,52.7,9.4z"/>
		<path class="st3" d="M31.8,12.2c0.1,0.3,0.4,0.5,0.5,0.8c13.5,18.1,16.2,42.2,16.8,49.2c0.8-4.7,3.6-17.3,10.7-30.4
			c0.1-6.9-1.4-13.9-5.8-20.2c-0.5-0.7-1-1.5-1.4-2.2c-0.7-1.1-1.2-2.1-1.8-3.2c-0.3,0.3-0.5,0.5-1,0.8l0,0c-4-4-9.5-6.6-15.7-6.6
			c-0.8,0-1.6,0-2.5,0.1C31.4,4.3,31.4,8.2,31.8,12.2z"/>
		<path class="st1" d="M69.4,18.1c-3.8,4.4-7,9.1-9.6,13.7c-7.3,13.1-9.9,25.7-10.7,30.4c0,0.1,0,0.1,0,0.3c0.4,0,0.7,0,1.1,0
			c3.6-4,16.8-17.9,34.1-27.9c2.2-3.4,3.4-7.6,3.4-12c0-7.7-4-14.4-9.9-18.4C77,6.2,76,8.3,74.9,10.4C73.3,13.1,71.5,15.6,69.4,18.1
			z"/>
		<path class="st1" d="M48,62.4c0.4,0,0.7,0,1.1,0l0,0c0-0.1,0-0.1,0-0.3c-0.5-7-3.3-31-16.8-49.2c-0.1-0.3-0.4-0.5-0.5-0.8
			c-2.3-3.3-4.3-6.6-5.9-9.9c-8,3.3-13.6,11.1-13.6,20.3c0,5.4,1.9,10.2,5.1,14C33.4,47.2,44.7,58.9,48,62.4z"/>
		<path class="st2" d="M48,62.4c-3.3-3.6-14.6-15.2-30.8-25.8c0.4,0.5,1,1.1,1.5,1.6l0,0l23.9,23.9C44.3,62.3,46.1,62.4,48,62.4z"/>
		<path class="st2" d="M50.2,62.4c2.5,0,4.9-0.3,7.3-0.5l23.6-23.5l0,0c1.1-1.1,2.2-2.3,3-3.7C66.8,44.6,53.8,58.4,50.2,62.4z"/>
		<path class="st4" d="M57.5,62c-2.3,0.3-4.8,0.4-7.3,0.5c-0.4,0-0.7,0-1.1,0l0,0c-0.4,0-0.7,0-1.1,0c-1.8,0-3.7-0.1-5.4-0.3
			l7.4,7.4L57.5,62z"/>
	</g>
	<g>
		<path class="st5" d="M30.1,99.5h38.7c0.4,0,0.8-0.3,0.8-0.7L74.7,70c0.1-0.5-0.3-1.1-0.8-1.1H25.2c-0.5,0-1,0.5-0.8,1.1l4.9,28.8
			C29.3,99.2,29.7,99.5,30.1,99.5z"/>
		<path class="st6" d="M20.7,60.2h58.7c0.5,0,1,0.4,1,1v8.7c0,0.5-0.4,1-1,1H20.7c-0.5,0-1-0.4-1-1v-8.7
			C19.7,60.6,20.1,60.2,20.7,60.2z"/>
	</g>
</g>
</svg>
