<?xml version="1.0" encoding="utf-8"?>
<!-- Generator: Adobe Illustrator 22.1.0, SVG Export Plug-In . SVG Version: 6.00 Build 0)  -->
<svg version="1.1" id="Capa_1" xmlns="http://www.w3.org/2000/svg" xmlns:xlink="http://www.w3.org/1999/xlink" x="0px" y="0px"
	 viewBox="0 0 100 100" style="enable-background:new 0 0 100 100;" xml:space="preserve">
<style type="text/css">
	.st0{fill:#037732;}
	.st1{fill:#007934;}
	.st2{fill:none;}
	.st3{fill:#124734;}
	.st4{fill:#10312B;}
	.st5{fill:#452E09;}
	.st6{fill:#502C1E;}
	.st7{fill:#3D271A;}
</style>
<g>
	<g>
		<g>
			<path class="st0" d="M27.6,86.1c-0.1-0.3,0-0.5,0.1-0.9l5.1-10c0.1-0.3,0.4-0.5,0.7-0.7c0.3-0.1,0.7,0,0.9,0.1
				c0.4,0.1,0.5,0.4,0.7,0.7c0.1,0.3,0,0.7-0.1,0.9l-4.7,9.2l4.9,2.4c0.7,0.4,0.8,0.8,0.5,1.5c-0.3,0.5-0.8,0.7-1.5,0.4l-5.9-3
				C27.9,86.7,27.6,86.4,27.6,86.1z"/>
			<path class="st0" d="M41.4,91.4c-0.7-0.5-1.1-1.1-1.5-1.9c-0.4-0.8-0.4-1.6-0.3-2.7c0.1-0.9,0.4-1.8,0.9-2.4
				c0.5-0.7,1.1-1.2,1.9-1.5c0.8-0.3,1.6-0.4,2.6-0.3c0.9,0.1,1.8,0.4,2.4,0.9c0.7,0.5,1.1,1.1,1.4,1.9c0.3,0.8,0.4,1.6,0.3,2.7
				c-0.1,0.9-0.4,1.8-0.9,2.4s-1.1,1.2-1.9,1.5c-0.8,0.3-1.6,0.4-2.6,0.3C42.9,92.2,42.1,91.8,41.4,91.4z M45.9,89.9
				c0.5-0.4,0.8-1.2,0.9-2.2c0.1-0.9,0-1.8-0.3-2.3c-0.3-0.5-0.8-0.9-1.6-1.1c-0.8-0.1-1.4,0-1.9,0.5c-0.5,0.4-0.8,1.2-0.9,2.2
				c-0.1,0.9,0,1.8,0.3,2.3c0.3,0.5,0.9,0.9,1.6,0.9C44.8,90.6,45.5,90.5,45.9,89.9z"/>
			<path class="st0" d="M58.7,82.2c0.1-0.1,0.3-0.3,0.5-0.3c0.3,0,0.5,0,0.8,0.1c0.3,0.1,0.4,0.4,0.5,0.7c0,0.1,0,0.3,0,0.5l-2.3,8
				c-0.1,0.3-0.1,0.4-0.4,0.7c-0.1,0.1-0.4,0.3-0.7,0.3c-0.3,0-0.5,0-0.7-0.1c-0.3-0.1-0.4-0.3-0.5-0.4l-4.7-6.8
				c-0.1-0.1-0.1-0.3-0.1-0.4c0-0.3,0-0.5,0.3-0.8c0.3-0.3,0.5-0.4,0.8-0.4c0.4-0.1,0.8,0.1,1.1,0.5l3.6,5.4l1.6-6.2
				C58.4,82.5,58.6,82.4,58.7,82.2z"/>
			<path class="st0" d="M72,84c0.1,0.1,0.4,0.3,0.5,0.5c0.1,0.4,0.1,0.8-0.1,1.2c-0.3,0.4-0.7,0.8-1.1,1.2c-0.4,0.4-0.8,0.7-1.4,0.9
				c-1.4,0.7-2.6,0.8-3.8,0.5c-1.2-0.3-2.2-1.2-2.8-2.6c-0.4-0.8-0.7-1.8-0.7-2.6s0.3-1.6,0.7-2.3c0.4-0.7,1.1-1.2,1.9-1.6
				c0.8-0.4,1.5-0.5,2.2-0.5c0.7,0,1.4,0.3,2,0.7c0.7,0.4,1.1,1.1,1.6,1.9c0.3,0.5,0.1,0.8-0.3,1.1l-5,2.6c0.4,0.8,0.9,1.2,1.6,1.4
				c0.5,0.1,1.2,0.1,1.9-0.3c0.4-0.1,0.7-0.4,0.9-0.7s0.5-0.5,0.8-0.8c0.3-0.4,0.4-0.5,0.7-0.7C71.5,83.8,71.8,83.8,72,84z
				 M64.9,81.9c-0.1,0.5-0.1,1.2,0.1,1.9l3.9-2c-0.4-0.7-0.8-1.1-1.4-1.4c-0.5-0.3-1.1-0.1-1.6,0.1C65.5,81,65.1,81.4,64.9,81.9z"/>
		</g>
		<g>
			<path class="st1" d="M21.7,14.5c0.3,0,0.5,0.1,0.8,0.4l8,7.8c0.3,0.3,0.4,0.5,0.4,0.8c0,0.3-0.1,0.5-0.4,0.8
				c-0.3,0.3-0.7,0.4-0.9,0.4l-11.3-1.4l5.9,5.8c0.3,0.3,0.4,0.5,0.4,0.8c0,0.3-0.1,0.5-0.4,0.8c-0.3,0.3-0.5,0.4-0.8,0.4
				c-0.3,0-0.5-0.1-0.8-0.4l-8-7.8c-0.3-0.3-0.4-0.5-0.4-0.8s0.1-0.5,0.4-0.8s0.5-0.4,0.9-0.4l11.3,1.4l-5.9-5.8
				c-0.3-0.3-0.4-0.5-0.4-0.8c0-0.3,0.1-0.5,0.4-0.8C21,14.7,21.3,14.5,21.7,14.5z"/>
			<path class="st1" d="M36,12c0.8,0.3,1.5,1.1,2,2.3l1.9,4.3c0.1,0.3,0.1,0.5,0,0.8c-0.1,0.3-0.3,0.4-0.7,0.7
				c-0.3,0.1-0.5,0.1-0.8,0c-0.3-0.1-0.5-0.3-0.7-0.5l-0.1-0.4c0,0.5-0.1,1.1-0.4,1.5c-0.3,0.4-0.7,0.8-1.4,1.1
				c-0.5,0.3-1.1,0.4-1.8,0.4c-0.5,0-1.1-0.1-1.5-0.4s-0.8-0.7-1.1-1.2c-0.3-0.7-0.4-1.2-0.1-1.8c0.1-0.5,0.5-0.9,1.2-1.5
				c0.7-0.5,1.6-1.1,2.8-1.6l0.4-0.1l-0.1-0.4c-0.3-0.5-0.5-0.9-0.9-1.1s-0.8-0.1-1.4,0.1c-0.4,0.1-0.7,0.4-0.9,0.7
				c-0.3,0.3-0.7,0.5-1.1,0.9c-0.3,0.3-0.4,0.4-0.5,0.5c-0.3,0.1-0.4,0.1-0.7,0c-0.1-0.1-0.4-0.3-0.4-0.5c-0.1-0.1-0.1-0.4-0.1-0.5
				c0-0.1,0.1-0.4,0.3-0.7c0.3-0.4,0.7-0.8,1.2-1.2c0.5-0.4,1.1-0.7,1.6-0.9C34.1,11.7,35.1,11.7,36,12z M36.8,18.6
				c0.1-0.5,0.1-1.1-0.1-1.8l-0.1-0.4l-0.3,0.1c-0.8,0.4-1.4,0.7-1.8,0.9c-0.4,0.3-0.7,0.5-0.8,0.8c-0.1,0.3-0.1,0.5,0,0.8
				c0.1,0.4,0.4,0.7,0.8,0.7c0.4,0.1,0.8,0.1,1.1-0.1C36.3,19.5,36.7,19.1,36.8,18.6z"/>
			<path class="st1" d="M48.3,17.4c0,0.3,0,0.5-0.3,0.8c-0.3,0.1-0.5,0.3-1.1,0.4h-0.5c-2.2,0.1-3.4-0.8-3.8-3l-0.5-4.2l-0.9,0.1
				c-0.4,0-0.7,0-0.8-0.1c-0.3-0.1-0.3-0.3-0.4-0.7c0-0.3,0-0.5,0.1-0.7c0.1-0.1,0.4-0.3,0.8-0.4l0.9-0.1l-0.3-1.8
				c0-0.4,0-0.7,0.1-0.8c0.1-0.3,0.4-0.4,0.8-0.4s0.7,0,0.9,0.1c0.3,0.1,0.4,0.4,0.4,0.8l0.3,1.8L45.7,9c0.4,0,0.7,0,0.8,0.1
				c0.3,0.1,0.3,0.3,0.4,0.7c0,0.3,0,0.5-0.1,0.7c-0.1,0.1-0.4,0.3-0.8,0.4l-1.6,0.3l0.7,4.3c0.1,0.9,0.7,1.4,1.5,1.4h0.5
				C47.8,16.6,48.2,16.8,48.3,17.4z"/>
			<path class="st1" d="M58.7,9.8c0.1,0.3,0.3,0.5,0.3,0.8L58,18.1c0,0.3-0.1,0.5-0.4,0.8c-0.3,0.1-0.5,0.3-0.9,0.1
				c-0.4,0-0.5-0.1-0.8-0.4c-0.1-0.3-0.3-0.5-0.3-0.8v-0.5c-0.4,0.5-0.8,0.8-1.4,1.1s-1.1,0.3-1.8,0.3c-2.3-0.3-3.2-1.8-3-4.3
				l0.5-4.7c0-0.4,0.1-0.5,0.4-0.8c0.3-0.3,0.5-0.3,0.9-0.1c0.4,0,0.7,0.1,0.8,0.4s0.3,0.5,0.3,0.8L52,14.5c-0.1,0.7,0,1.2,0.3,1.5
				c0.3,0.4,0.7,0.5,1.2,0.7c0.7,0.1,1.2-0.1,1.6-0.4c0.4-0.4,0.7-0.9,0.8-1.6l0.5-4.2c0-0.4,0.1-0.5,0.4-0.8
				c0.3-0.1,0.5-0.3,0.9-0.3C58.3,9.4,58.6,9.5,58.7,9.8z"/>
			<path class="st1" d="M69.2,13.6c0.1,0.3,0.1,0.5,0,0.8c-0.1,0.3-0.3,0.5-0.5,0.7c-0.3,0.1-0.5,0.1-0.9,0l-0.5-0.1
				c-0.7-0.3-1.4-0.3-1.9,0c-0.5,0.3-0.8,0.7-1.1,1.4l-1.6,3.6c-0.1,0.4-0.4,0.5-0.7,0.7c-0.3,0.1-0.5,0.1-0.9,0s-0.5-0.4-0.7-0.7
				c-0.1-0.3-0.1-0.5,0-0.9l3-6.9c0.1-0.3,0.4-0.5,0.7-0.7c0.3-0.1,0.5-0.1,0.9,0c0.3,0.1,0.5,0.3,0.7,0.5c0.1,0.3,0.1,0.5,0,0.8
				l-0.3,0.7c0.4-0.4,0.9-0.7,1.5-0.8c0.5-0.1,1.1,0,1.6,0.1l0.3,0.1C68.8,13.2,69.1,13.3,69.2,13.6z"/>
			<path class="st1" d="M77.4,20.3c0.1,0.9-0.3,1.9-1.1,2.8l-3,3.6c-0.3,0.3-0.4,0.4-0.8,0.4c-0.3,0-0.5-0.1-0.8-0.3
				c-0.3-0.3-0.4-0.4-0.4-0.8c0-0.3,0-0.5,0.3-0.8l0.3-0.3c-0.5,0.3-0.9,0.4-1.5,0.3c-0.5-0.1-1.1-0.3-1.5-0.7
				c-0.5-0.4-0.8-0.8-1.1-1.4c-0.3-0.5-0.3-1.1-0.3-1.6c0-0.5,0.3-1.1,0.5-1.5c0.4-0.5,0.9-0.8,1.5-0.9c0.5-0.1,1.2,0,1.9,0.4
				c0.7,0.4,1.6,0.9,2.7,1.9l0.4,0.3l0.3-0.4c0.4-0.5,0.5-0.9,0.5-1.4s-0.3-0.8-0.8-1.2c-0.3-0.3-0.7-0.4-0.9-0.5
				c-0.4-0.1-0.8-0.3-1.4-0.5c-0.4-0.1-0.5-0.1-0.7-0.3c-0.1-0.1-0.3-0.3-0.3-0.5s0-0.4,0.3-0.7c0.1-0.1,0.3-0.3,0.5-0.4
				c0.1,0,0.4,0,0.7,0c0.5,0.1,1.1,0.3,1.6,0.5c0.5,0.3,1.1,0.5,1.6,0.9C76.7,18.6,77.2,19.4,77.4,20.3z M71.8,24.1
				c0.5-0.1,1.1-0.4,1.5-0.9l0.3-0.3l-0.3-0.3c-0.7-0.5-1.2-0.9-1.6-1.2c-0.4-0.3-0.8-0.4-1.1-0.3c-0.3,0-0.5,0.1-0.7,0.4
				c-0.3,0.3-0.4,0.7-0.3,1.1c0,0.4,0.3,0.7,0.5,0.9C70.7,24,71.3,24.3,71.8,24.1z"/>
			<path class="st1" d="M74.5,29.8c0-0.3,0.1-0.5,0.4-0.8l9.1-7c0.3-0.3,0.5-0.3,0.8-0.3c0.3,0,0.5,0.3,0.8,0.5
				c0.3,0.3,0.3,0.5,0.3,0.8c0,0.3-0.1,0.5-0.4,0.8l-9.1,7c-0.3,0.3-0.5,0.3-0.9,0.3c-0.3,0-0.5-0.3-0.8-0.5
				C74.5,30.3,74.5,30.1,74.5,29.8z"/>
		</g>
		<path class="st0" d="M49.9,98.6c-13,0-25.1-5-34.2-14C6.6,75.3,1.4,63.2,1.4,50.2s5-25.3,14-34.4C24.7,6.6,36.8,1.4,49.8,1.4
			c13,0,25.3,5,34.4,14c9.2,9.2,14.3,21.3,14.3,34.3s-5,25.3-14,34.4c-9.2,9.2-21.3,14.3-34.3,14.3C50.1,98.6,49.9,98.6,49.9,98.6z
			 M49.9,2.7h-0.1c-12.7,0-24.5,5-33.4,14C7.5,25.6,2.7,37.5,2.7,50.2s5,24.5,14,33.4c8.9,8.9,20.8,13.8,33.2,13.8h0.1
			c12.7,0,24.5-5,33.4-14c8.9-8.9,13.8-20.8,13.8-33.5s-5-24.5-14-33.4C74.2,7.5,62.5,2.7,49.9,2.7z"/>
	</g>
	<path class="st0" d="M14.3,35.6C12,40.7,10.8,46.2,10.8,52c0,10.4,4.2,20.3,11.6,27.6l0.9-0.9C16.2,71.4,12.2,62,12.1,52
		c0-5.5,1.1-10.8,3.4-15.7"/>
	<path class="st0" d="M85.6,35.6c2.3,5.1,3.5,10.5,3.5,16.3c0,10.4-4.2,20.3-11.6,27.6l-0.9-0.9C83.7,71.4,87.6,62,87.8,52
		c0-5.5-1.1-10.8-3.4-15.7"/>
	<g>
		<g>
			<path class="st2" d="M42.5,29.5c-0.8,0.1-1.6,0.3-2.4,0.7c0.7,1.4,1.5,2.7,2.4,4.1C42.4,32.5,42.4,31,42.5,29.5z"/>
			<path class="st2" d="M61.3,30.9c-0.3-0.1-0.7-0.4-0.9-0.5c0,0.9-0.1,2-0.3,3.1C60.5,32.6,60.9,31.7,61.3,30.9z"/>
			<path class="st1" d="M52.5,30.2c-0.8,0.4-1.5,0.8-2.2,1.5c0.3,0.4,0.5,0.8,0.8,1.4C51.6,32.1,52.1,31.2,52.5,30.2z"/>
			<path class="st3" d="M51,33c0.1,0.3,0.4,0.5,0.5,0.9c1.8,2.6,2.3,5.4,2.3,8.2c1.1-1.9,2.3-3.8,3.9-5.5c0.5-0.7,1.1-1.2,1.5-1.9
				c0.3-0.4,0.5-0.8,0.7-1.2c0.1-1.1-0.9-3.5-1.5-3.8c-0.7-0.1-1.5-0.3-2.2-0.3c-1.4,0-2.7,0.3-3.8,0.8C52.1,31.2,51.6,32.1,51,33z"
				/>
			<path class="st4" d="M42.5,34.1c0.1,0.1,0.1,0.3,0.3,0.3c5.4,7.4,6.6,17.2,6.8,20c0.3-1.9,1.5-7,4.3-12.3c0-2.8-0.5-5.7-2.3-8.2
				c-0.1-0.3-0.4-0.5-0.5-0.9c-0.3-0.4-0.5-0.8-0.8-1.4c-0.1,0.1-0.3,0.3-0.4,0.4l0,0c-1.6-1.6-3.9-2.7-6.3-2.7c-0.4,0-0.7,0-1.1,0
				C42.4,31,42.4,32.5,42.5,34.1z"/>
			<path class="st1" d="M57.9,36.6c-1.6,1.8-2.8,3.6-3.9,5.5c-3,5.3-4.1,10.4-4.3,12.3v0.1c0.1,0,0.3,0,0.4,0
				c1.5-1.6,6.8-7.3,13.8-11.3c0.9-1.4,1.4-3.1,1.4-4.9c0-3.1-1.6-5.9-4.1-7.4c-0.3,0.8-0.7,1.8-1.2,2.6
				C59.5,34.5,58.7,35.5,57.9,36.6z"/>
			<path class="st1" d="M49.1,54.7c0.1,0,0.3,0,0.4,0l0,0v-0.1c-0.3-2.8-1.4-12.7-6.8-20c-0.1-0.1-0.1-0.3-0.3-0.3
				c-0.9-1.4-1.8-2.7-2.4-4.1c-3.2,1.4-5.5,4.6-5.5,8.2c0,2.2,0.8,4.2,2,5.7C43.2,48.4,47.8,53.2,49.1,54.7z"/>
			<path class="st3" d="M49.1,54.7c-1.4-1.5-5.9-6.2-12.6-10.5c0.1,0.3,0.4,0.4,0.7,0.7l0,0l9.7,9.7C47.6,54.5,48.4,54.5,49.1,54.7z
				"/>
			<path class="st3" d="M50.1,54.5c1.1,0,2-0.1,3-0.3l9.6-9.6l0,0c0.4-0.4,0.9-0.9,1.2-1.5C56.8,47.4,51.6,52.9,50.1,54.5z"/>
			<path class="st5" d="M53,54.4c-0.9,0.1-1.9,0.1-3,0.3c-0.1,0-0.3,0-0.4,0l0,0c-0.1,0-0.3,0-0.4,0c-0.8,0-1.5,0-2.2-0.1l3,3
				L53,54.4z"/>
		</g>
		<g>
			<path class="st6" d="M41.8,69.7h15.8c0.1,0,0.3-0.1,0.4-0.3l2-11.8c0-0.3-0.1-0.4-0.4-0.4H39.8c-0.3,0-0.4,0.3-0.4,0.4l2,11.8
				C41.6,69.5,41.7,69.7,41.8,69.7z"/>
			<path class="st7" d="M38,53.7h23.8c0.1,0,0.4,0.1,0.4,0.4v3.5c0,0.1-0.1,0.4-0.4,0.4H38c-0.1,0-0.4-0.1-0.4-0.4v-3.5
				C37.6,53.8,37.8,53.7,38,53.7z"/>
		</g>
	</g>
</g>
</svg>
