<?xml version="1.0" encoding="utf-8"?>
<!-- Generator: Adobe Illustrator 22.1.0, SVG Export Plug-In . SVG Version: 6.00 Build 0)  -->
<svg version="1.1" id="Capa_1" xmlns="http://www.w3.org/2000/svg" xmlns:xlink="http://www.w3.org/1999/xlink" x="0px" y="0px"
	 viewBox="0 0 100 100" style="enable-background:new 0 0 100 100;" xml:space="preserve">
<style type="text/css">
	.st0{fill:none;}
	.st1{fill:#007934;}
	.st2{fill:#124734;}
	.st3{fill:#10312B;}
	.st4{fill:#56380C;}
</style>
<g>
	<g>
		<path class="st0" d="M25.9,4.5c-2.8,0.3-5.3,1-7.9,2c2.2,4.4,4.7,8.9,7.9,13.2C25.4,14.3,25.5,9.2,25.9,4.5z"/>
		<path class="st1" d="M58.4,7.1c-2.7,1.3-5.1,2.8-7.1,4.8c0.8,1.4,1.5,2.8,2.4,4.2C55.4,12.9,57.1,10,58.4,7.1z"/>
		<path class="st2" d="M53.7,15.9c0.6,1,1.3,1.9,1.9,2.9c5.7,8.4,7.8,17.8,7.6,26.8c3.4-6.2,7.6-12.5,12.8-18.3
			c1.8-2,3.3-4.1,4.8-6.2c0.9-1.3,1.7-2.5,2.4-3.8c0.5-3.4-2.9-11.7-5-12.2c-2.3-0.6-4.7-0.9-7.2-0.9c-4.4,0-8.6,1-12.5,2.8
			C57.1,10,55.4,12.9,53.7,15.9z"/>
		<path class="st3" d="M25.9,19.6c0.3,0.4,0.5,0.6,0.8,1c17.8,24,21.5,56,22.2,65.3c1-6.2,4.7-23,14.2-40.3
			c0.1-9.1-1.8-18.4-7.6-26.8c-0.6-1-1.3-1.9-1.9-2.9c-0.9-1.4-1.7-2.8-2.4-4.2c-0.4,0.4-0.8,0.8-1.1,1.1l0,0
			c-5.3-5.3-12.7-8.6-20.8-8.6c-1.1,0-2.3,0.1-3.3,0.3C25.5,9.2,25.4,14.3,25.9,19.6z"/>
		<path class="st1" d="M76,27.4c-5.1,5.8-9.4,12.1-12.8,18.3C53.5,63,49.9,79.7,48.9,86c0,0.1,0,0.3,0,0.4c0.5,0,0.9,0,1.4,0
			c4.8-5.3,22.2-23.6,45.1-37.1c2.9-4.6,4.6-9.9,4.6-15.8c0-10.2-5.2-19.2-13.2-24.4c-1,2.8-2.4,5.5-3.8,8.3
			C81.2,20.8,78.8,24.2,76,27.4z"/>
		<path class="st1" d="M47.5,86.3c0.5,0,0.9,0,1.4,0c0,0,0,0,0.1,0c0-0.1,0-0.3,0-0.4c-0.8-9.3-4.3-41.2-22.2-65.3
			c-0.3-0.4-0.5-0.6-0.8-1c-3-4.3-5.7-8.8-7.9-13.2C7.5,10.9,0,21.3,0,33.5C0,40.6,2.5,47.1,6.6,52C28.2,66.1,43.2,81.6,47.5,86.3z"
			/>
		<path class="st2" d="M47.5,86.3c-4.3-4.7-19.3-20.2-40.8-34.2c0.6,0.8,1.3,1.5,2,2.2l0,0L40.4,86C42.6,86.2,45,86.3,47.5,86.3z"/>
		<path class="st2" d="M50.3,86.3c3.4,0,6.6-0.3,9.8-0.6l31.4-31.4l0,0c1.5-1.5,2.9-3.2,4.1-5C72.6,62.7,55.1,81,50.3,86.3z"/>
		<path class="st4" d="M60.1,85.7c-3.2,0.4-6.4,0.6-9.8,0.6c-0.5,0-0.9,0-1.4,0c0,0,0,0-0.1,0c-0.5,0-0.9,0-1.4,0
			c-2.4,0-4.8-0.1-7.2-0.4l9.8,9.8L60.1,85.7z"/>
	</g>
</g>
</svg>
