<?xml version="1.0" encoding="utf-8"?>
<!-- Generator: Adobe Illustrator 22.1.0, SVG Export Plug-In . SVG Version: 6.00 Build 0)  -->
<svg version="1.1" id="Capa_1" xmlns="http://www.w3.org/2000/svg" xmlns:xlink="http://www.w3.org/1999/xlink" x="0px" y="0px"
	 viewBox="0 0 255 75" style="enable-background:new 0 0 255 75;" xml:space="preserve">
<style type="text/css">
	.st0{fill:none;}
	.st1{fill:#007934;}
	.st2{fill:#124734;}
	.st3{fill:#10312B;}
	.st4{fill:#56380C;}
	.st5{fill:#037732;}
	.st6{fill:#452E09;}
	.st7{fill:#502C1E;}
	.st8{fill:#3D271A;}
</style>
<g>
	<g>
		<path class="st0" d="M23.5,1.7c-2.2,0.2-4.2,0.8-6.2,1.6c1.7,3.5,3.7,7,6.2,10.4C23.1,9.4,23.2,5.4,23.5,1.7z"/>
		<path class="st1" d="M49.1,3.7c-2.1,1-4,2.2-5.6,3.8c0.6,1.1,1.2,2.2,1.9,3.3C46.7,8.3,48,6,49.1,3.7z"/>
		<path class="st2" d="M45.4,10.7c0.5,0.8,1,1.5,1.5,2.3c4.5,6.6,6.1,14,6,21.1c2.7-4.9,6-9.8,10.1-14.4c1.4-1.6,2.6-3.2,3.8-4.9
			c0.7-1,1.3-2,1.9-3c0.4-2.7-2.3-9.2-3.9-9.6c-1.8-0.5-3.7-0.7-5.7-0.7c-3.5,0-6.8,0.8-9.8,2.2C48,6,46.7,8.3,45.4,10.7z"/>
		<path class="st3" d="M23.5,13.6c0.2,0.3,0.4,0.5,0.6,0.8c14,18.9,16.9,44.1,17.5,51.4c0.8-4.9,3.7-18.1,11.2-31.7
			c0.1-7.2-1.4-14.5-6-21.1c-0.5-0.8-1-1.5-1.5-2.3c-0.7-1.1-1.3-2.2-1.9-3.3c-0.3,0.3-0.6,0.6-0.9,0.9h0c-4.2-4.2-10-6.8-16.4-6.8
			c-0.9,0-1.8,0.1-2.6,0.2C23.2,5.4,23.1,9.4,23.5,13.6z"/>
		<path class="st1" d="M62.9,19.7c-4,4.6-7.4,9.5-10.1,14.4c-7.6,13.6-10.4,26.8-11.2,31.7c0,0.1,0,0.2,0,0.3c0.4,0,0.7,0,1.1,0
			c3.8-4.2,17.5-18.6,35.5-29.2c2.3-3.6,3.6-7.8,3.6-12.4c0-8-4.1-15.1-10.4-19.2c-0.8,2.2-1.9,4.3-3,6.5
			C67,14.5,65.1,17.2,62.9,19.7z"/>
		<path class="st1" d="M40.5,66.1c0.4,0,0.7,0,1.1,0c0,0,0,0,0.1,0c0-0.1,0-0.2,0-0.3c-0.6-7.3-3.4-32.4-17.5-51.4
			c-0.2-0.3-0.4-0.5-0.6-0.8c-2.4-3.4-4.5-6.9-6.2-10.4C9,6.7,3.1,14.9,3.1,24.5c0,5.6,2,10.7,5.2,14.6
			C25.3,50.2,37.1,62.4,40.5,66.1z"/>
		<path class="st2" d="M40.5,66.1c-3.4-3.7-15.2-15.9-32.1-26.9c0.5,0.6,1,1.2,1.6,1.7l0,0l24.9,24.9C36.6,66,38.5,66.1,40.5,66.1z"
			/>
		<path class="st2" d="M42.7,66.1c2.7,0,5.2-0.2,7.7-0.5l24.7-24.7l0,0c1.2-1.2,2.3-2.5,3.2-3.9C60.2,47.5,46.5,61.9,42.7,66.1z"/>
		<path class="st4" d="M50.4,65.6c-2.5,0.3-5,0.5-7.7,0.5c-0.4,0-0.7,0-1.1,0c0,0,0,0-0.1,0c-0.4,0-0.7,0-1.1,0
			c-1.9,0-3.8-0.1-5.7-0.3l7.7,7.7L50.4,65.6z"/>
	</g>
</g>
<g>
	<g>
		<g>
			<path class="st5" d="M196,64.3c-0.1-0.2,0-0.4,0.1-0.7l3.8-7.4c0.1-0.2,0.3-0.4,0.5-0.5c0.2-0.1,0.5,0,0.7,0.1
				c0.3,0.1,0.4,0.3,0.5,0.5c0.1,0.2,0,0.5-0.1,0.7l-3.5,6.8l3.6,1.8c0.5,0.3,0.6,0.6,0.4,1.1c-0.2,0.4-0.6,0.5-1.1,0.3l-4.4-2.2
				C196.2,64.7,196,64.5,196,64.3z"/>
			<path class="st5" d="M206.2,68.2c-0.5-0.4-0.8-0.8-1.1-1.4s-0.3-1.2-0.2-2c0.1-0.7,0.3-1.3,0.7-1.8c0.4-0.5,0.8-0.9,1.4-1.1
				s1.2-0.3,1.9-0.2c0.7,0.1,1.3,0.3,1.8,0.7c0.5,0.4,0.8,0.8,1,1.4c0.2,0.6,0.3,1.2,0.2,2c-0.1,0.7-0.3,1.3-0.7,1.8
				c-0.4,0.5-0.8,0.9-1.4,1.1c-0.6,0.2-1.2,0.3-1.9,0.2C207.3,68.8,206.7,68.5,206.2,68.2z M209.5,67.1c0.4-0.3,0.6-0.9,0.7-1.6
				c0.1-0.7,0-1.3-0.2-1.7c-0.2-0.4-0.6-0.7-1.2-0.8c-0.6-0.1-1,0-1.4,0.4c-0.4,0.3-0.6,0.9-0.7,1.6c-0.1,0.7,0,1.3,0.2,1.7
				s0.7,0.7,1.2,0.7C208.7,67.6,209.2,67.5,209.5,67.1z"/>
			<path class="st5" d="M219,61.4c0.1-0.1,0.2-0.2,0.4-0.2c0.2,0,0.4,0,0.6,0.1c0.2,0.1,0.3,0.3,0.4,0.5c0,0.1,0,0.2,0,0.4l-1.7,5.9
				c-0.1,0.2-0.1,0.3-0.3,0.5c-0.1,0.1-0.3,0.2-0.5,0.2c-0.2,0-0.4,0-0.5-0.1c-0.2-0.1-0.3-0.2-0.4-0.3l-3.5-5
				c-0.1-0.1-0.1-0.2-0.1-0.3c0-0.2,0-0.4,0.2-0.6c0.2-0.2,0.4-0.3,0.6-0.3c0.3-0.1,0.6,0.1,0.8,0.4l2.7,4l1.2-4.6
				C218.8,61.6,218.9,61.5,219,61.4z"/>
			<path class="st5" d="M228.8,62.7c0.1,0.1,0.3,0.2,0.4,0.4c0.1,0.3,0.1,0.6-0.1,0.9c-0.2,0.3-0.5,0.6-0.8,0.9s-0.6,0.5-1,0.7
				c-1,0.5-1.9,0.6-2.8,0.4s-1.6-0.9-2.1-1.9c-0.3-0.6-0.5-1.3-0.5-1.9c0-0.6,0.2-1.2,0.5-1.7c0.3-0.5,0.8-0.9,1.4-1.2
				c0.6-0.3,1.1-0.4,1.6-0.4c0.5,0,1,0.2,1.5,0.5c0.5,0.3,0.8,0.8,1.2,1.4c0.2,0.4,0.1,0.6-0.2,0.8l-3.7,1.9c0.3,0.6,0.7,0.9,1.2,1
				c0.4,0.1,0.9,0.1,1.4-0.2c0.3-0.1,0.5-0.3,0.7-0.5c0.2-0.2,0.4-0.4,0.6-0.6c0.2-0.3,0.3-0.4,0.5-0.5
				C228.5,62.6,228.7,62.6,228.8,62.7z M223.6,61.2c-0.1,0.4-0.1,0.9,0.1,1.4l2.9-1.5c-0.3-0.5-0.6-0.8-1-1s-0.8-0.1-1.2,0.1
				C224,60.5,223.7,60.8,223.6,61.2z"/>
		</g>
		<g>
			<path class="st1" d="M191.6,11.3c0.2,0,0.4,0.1,0.6,0.3l5.9,5.8c0.2,0.2,0.3,0.4,0.3,0.6c0,0.2-0.1,0.4-0.3,0.6
				c-0.2,0.2-0.5,0.3-0.7,0.3l-8.4-1l4.4,4.3c0.2,0.2,0.3,0.4,0.3,0.6s-0.1,0.4-0.3,0.6c-0.2,0.2-0.4,0.3-0.6,0.3
				c-0.2,0-0.4-0.1-0.6-0.3l-5.9-5.8c-0.2-0.2-0.3-0.4-0.3-0.6c0-0.2,0.1-0.4,0.3-0.6c0.2-0.2,0.4-0.3,0.7-0.3l8.4,1l-4.4-4.3
				c-0.2-0.2-0.3-0.4-0.3-0.6s0.1-0.4,0.3-0.6C191.1,11.4,191.3,11.3,191.6,11.3z"/>
			<path class="st1" d="M202.2,9.4c0.6,0.2,1.1,0.8,1.5,1.7l1.4,3.2c0.1,0.2,0.1,0.4,0,0.6c-0.1,0.2-0.2,0.3-0.5,0.5
				c-0.2,0.1-0.4,0.1-0.6,0c-0.2-0.1-0.4-0.2-0.5-0.4l-0.1-0.3c0,0.4-0.1,0.8-0.3,1.1c-0.2,0.3-0.5,0.6-1,0.8
				c-0.4,0.2-0.8,0.3-1.3,0.3c-0.4,0-0.8-0.1-1.1-0.3c-0.3-0.2-0.6-0.5-0.8-0.9c-0.2-0.5-0.3-0.9-0.1-1.3c0.1-0.4,0.4-0.7,0.9-1.1
				c0.5-0.4,1.2-0.8,2.1-1.2l0.3-0.1l-0.1-0.3c-0.2-0.4-0.4-0.7-0.7-0.8s-0.6-0.1-1,0.1c-0.3,0.1-0.5,0.3-0.7,0.5
				c-0.2,0.2-0.5,0.4-0.8,0.7c-0.2,0.2-0.3,0.3-0.4,0.4c-0.2,0.1-0.3,0.1-0.5,0c-0.1-0.1-0.3-0.2-0.3-0.4c-0.1-0.1-0.1-0.3-0.1-0.4
				c0-0.1,0.1-0.3,0.2-0.5c0.2-0.3,0.5-0.6,0.9-0.9c0.4-0.3,0.8-0.5,1.2-0.7C200.8,9.2,201.5,9.2,202.2,9.4z M202.8,14.3
				c0.1-0.4,0.1-0.8-0.1-1.3l-0.1-0.3l-0.2,0.1c-0.6,0.3-1,0.5-1.3,0.7s-0.5,0.4-0.6,0.6c-0.1,0.2-0.1,0.4,0,0.6
				c0.1,0.3,0.3,0.5,0.6,0.5c0.3,0.1,0.6,0.1,0.8-0.1C202.4,15,202.7,14.7,202.8,14.3z"/>
			<path class="st1" d="M211.3,13.4c0,0.2,0,0.4-0.2,0.6c-0.2,0.1-0.4,0.2-0.8,0.3l-0.4,0c-1.6,0.1-2.5-0.6-2.8-2.2L206.7,9L206,9.1
				c-0.3,0-0.5,0-0.6-0.1c-0.2-0.1-0.2-0.2-0.3-0.5c0-0.2,0-0.4,0.1-0.5c0.1-0.1,0.3-0.2,0.6-0.3l0.7-0.1l-0.2-1.3
				c0-0.3,0-0.5,0.1-0.6c0.1-0.2,0.3-0.3,0.6-0.3c0.3,0,0.5,0,0.7,0.1c0.2,0.1,0.3,0.3,0.3,0.6l0.2,1.3l1.2-0.2c0.3,0,0.5,0,0.6,0.1
				c0.2,0.1,0.2,0.2,0.3,0.5c0,0.2,0,0.4-0.1,0.5c-0.1,0.1-0.3,0.2-0.6,0.3l-1.2,0.2l0.5,3.2c0.1,0.7,0.5,1,1.1,1l0.4,0
				C210.9,12.8,211.2,13,211.3,13.4z"/>
			<path class="st1" d="M219,7.8c0.1,0.2,0.2,0.4,0.2,0.6l-0.7,5.5c0,0.2-0.1,0.4-0.3,0.6c-0.2,0.1-0.4,0.2-0.7,0.1
				c-0.3,0-0.4-0.1-0.6-0.3c-0.1-0.2-0.2-0.4-0.2-0.6l0-0.4c-0.3,0.4-0.6,0.6-1,0.8s-0.8,0.2-1.3,0.2c-1.7-0.2-2.4-1.3-2.2-3.2
				l0.4-3.5c0-0.3,0.1-0.4,0.3-0.6s0.4-0.2,0.7-0.1c0.3,0,0.5,0.1,0.6,0.3s0.2,0.4,0.2,0.6l-0.4,3.5c-0.1,0.5,0,0.9,0.2,1.1
				c0.2,0.3,0.5,0.4,0.9,0.5c0.5,0.1,0.9-0.1,1.2-0.3c0.3-0.3,0.5-0.7,0.6-1.2l0.4-3.1c0-0.3,0.1-0.4,0.3-0.6
				c0.2-0.1,0.4-0.2,0.7-0.2C218.7,7.5,218.9,7.6,219,7.8z"/>
			<path class="st1" d="M226.8,10.6c0.1,0.2,0.1,0.4,0,0.6c-0.1,0.2-0.2,0.4-0.4,0.5c-0.2,0.1-0.4,0.1-0.7,0l-0.4-0.1
				c-0.5-0.2-1-0.2-1.4,0c-0.4,0.2-0.6,0.5-0.8,1l-1.2,2.7c-0.1,0.3-0.3,0.4-0.5,0.5c-0.2,0.1-0.4,0.1-0.7,0s-0.4-0.3-0.5-0.5
				c-0.1-0.2-0.1-0.4,0-0.7l2.2-5.1c0.1-0.2,0.3-0.4,0.5-0.5c0.2-0.1,0.4-0.1,0.7,0c0.2,0.1,0.4,0.2,0.5,0.4c0.1,0.2,0.1,0.4,0,0.6
				l-0.2,0.5c0.3-0.3,0.7-0.5,1.1-0.6c0.4-0.1,0.8,0,1.2,0.1l0.2,0.1C226.5,10.3,226.7,10.4,226.8,10.6z"/>
			<path class="st1" d="M232.8,15.6c0.1,0.7-0.2,1.4-0.8,2.1l-2.2,2.7c-0.2,0.2-0.3,0.3-0.6,0.3c-0.2,0-0.4-0.1-0.6-0.2
				c-0.2-0.2-0.3-0.3-0.3-0.6c0-0.2,0-0.4,0.2-0.6l0.2-0.2c-0.4,0.2-0.7,0.3-1.1,0.2c-0.4-0.1-0.8-0.2-1.1-0.5
				c-0.4-0.3-0.6-0.6-0.8-1c-0.2-0.4-0.2-0.8-0.2-1.2c0-0.4,0.2-0.8,0.4-1.1c0.3-0.4,0.7-0.6,1.1-0.7c0.4-0.1,0.9,0,1.4,0.3
				c0.5,0.3,1.2,0.7,2,1.4l0.3,0.2l0.2-0.3c0.3-0.4,0.4-0.7,0.4-1c0-0.3-0.2-0.6-0.6-0.9c-0.2-0.2-0.5-0.3-0.7-0.4
				c-0.3-0.1-0.6-0.2-1-0.4c-0.3-0.1-0.4-0.1-0.5-0.2c-0.1-0.1-0.2-0.2-0.2-0.4c0-0.2,0-0.3,0.2-0.5c0.1-0.1,0.2-0.2,0.4-0.3
				c0.1,0,0.3,0,0.5,0c0.4,0.1,0.8,0.2,1.2,0.4c0.4,0.2,0.8,0.4,1.2,0.7C232.3,14.3,232.7,14.9,232.8,15.6z M228.7,18.4
				c0.4-0.1,0.8-0.3,1.1-0.7l0.2-0.2l-0.2-0.2c-0.5-0.4-0.9-0.7-1.2-0.9c-0.3-0.2-0.6-0.3-0.8-0.2c-0.2,0-0.4,0.1-0.5,0.3
				c-0.2,0.2-0.3,0.5-0.2,0.8c0,0.3,0.2,0.5,0.4,0.7C227.9,18.3,228.3,18.5,228.7,18.4z"/>
			<path class="st1" d="M230.7,22.6c0-0.2,0.1-0.4,0.3-0.6l6.7-5.2c0.2-0.2,0.4-0.2,0.6-0.2s0.4,0.2,0.6,0.4
				c0.2,0.2,0.2,0.4,0.2,0.6s-0.1,0.4-0.3,0.6l-6.7,5.2c-0.2,0.2-0.4,0.2-0.7,0.2c-0.2,0-0.4-0.2-0.6-0.4
				C230.7,23,230.7,22.8,230.7,22.6z"/>
		</g>
		<path class="st5" d="M212.5,73.5c-9.6,0-18.6-3.7-25.3-10.4c-6.8-6.8-10.6-15.8-10.6-25.4c0-9.6,3.7-18.7,10.4-25.5
			c6.8-6.8,15.8-10.6,25.4-10.6c9.6,0,18.7,3.7,25.5,10.4c6.8,6.8,10.6,15.8,10.6,25.4c0,9.6-3.7,18.7-10.4,25.5
			c-6.8,6.8-15.8,10.6-25.4,10.6C212.6,73.5,212.5,73.5,212.5,73.5z M212.5,2.5c0,0-0.1,0-0.1,0c-9.4,0-18.1,3.7-24.7,10.4
			c-6.6,6.6-10.2,15.4-10.2,24.8c0,9.4,3.7,18.1,10.4,24.7c6.6,6.6,15.4,10.2,24.6,10.2c0,0,0.1,0,0.1,0c9.4,0,18.1-3.7,24.7-10.4
			c6.6-6.6,10.2-15.4,10.2-24.8c0-9.4-3.7-18.1-10.4-24.7C230.5,6.1,221.8,2.5,212.5,2.5z"/>
	</g>
	<path class="st5" d="M186.1,26.9c-1.7,3.8-2.6,7.8-2.6,12.1c0,7.7,3.1,15,8.6,20.4l0.7-0.7c-5.3-5.3-8.2-12.3-8.3-19.7
		c0-4.1,0.8-8,2.5-11.6"/>
	<path class="st5" d="M238.9,26.9c1.7,3.8,2.6,7.8,2.6,12.1c0,7.7-3.1,15-8.6,20.4l-0.7-0.7c5.3-5.3,8.2-12.3,8.3-19.7
		c0-4.1-0.8-8-2.5-11.6"/>
	<g>
		<g>
			<path class="st0" d="M207,22.4c-0.6,0.1-1.2,0.2-1.8,0.5c0.5,1,1.1,2,1.8,3C206.9,24.6,206.9,23.5,207,22.4z"/>
			<path class="st0" d="M220.9,23.4c-0.2-0.1-0.5-0.3-0.7-0.4c0,0.7-0.1,1.5-0.2,2.3C220.3,24.7,220.6,24,220.9,23.4z"/>
			<path class="st1" d="M214.4,22.9c-0.6,0.3-1.1,0.6-1.6,1.1c0.2,0.3,0.4,0.6,0.6,1C213.7,24.3,214.1,23.6,214.4,22.9z"/>
			<path class="st2" d="M213.3,25c0.1,0.2,0.3,0.4,0.4,0.7c1.3,1.9,1.7,4,1.7,6.1c0.8-1.4,1.7-2.8,2.9-4.1c0.4-0.5,0.8-0.9,1.1-1.4
				c0.2-0.3,0.4-0.6,0.5-0.9c0.1-0.8-0.7-2.6-1.1-2.8c-0.5-0.1-1.1-0.2-1.6-0.2c-1,0-2,0.2-2.8,0.6C214.1,23.6,213.7,24.3,213.3,25z
				"/>
			<path class="st3" d="M207,25.8c0.1,0.1,0.1,0.2,0.2,0.2c4,5.5,4.9,12.7,5,14.8c0.2-1.4,1.1-5.2,3.2-9.1c0-2.1-0.4-4.2-1.7-6.1
				c-0.1-0.2-0.3-0.4-0.4-0.7c-0.2-0.3-0.4-0.6-0.6-1c-0.1,0.1-0.2,0.2-0.3,0.3h0c-1.2-1.2-2.9-2-4.7-2c-0.3,0-0.5,0-0.8,0
				C206.9,23.5,206.9,24.6,207,25.8z"/>
			<path class="st1" d="M218.4,27.6c-1.2,1.3-2.1,2.7-2.9,4.1c-2.2,3.9-3,7.7-3.2,9.1c0,0,0,0.1,0,0.1c0.1,0,0.2,0,0.3,0
				c1.1-1.2,5-5.4,10.2-8.4c0.7-1,1-2.3,1-3.6c0-2.3-1.2-4.4-3-5.5c-0.2,0.6-0.5,1.3-0.9,1.9C219.6,26.1,219,26.8,218.4,27.6z"/>
			<path class="st1" d="M211.9,41c0.1,0,0.2,0,0.3,0c0,0,0,0,0,0c0,0,0-0.1,0-0.1c-0.2-2.1-1-9.4-5-14.8c-0.1-0.1-0.1-0.2-0.2-0.2
				c-0.7-1-1.3-2-1.8-3c-2.4,1-4.1,3.4-4.1,6.1c0,1.6,0.6,3.1,1.5,4.2C207.5,36.4,210.9,39.9,211.9,41z"/>
			<path class="st2" d="M211.9,41c-1-1.1-4.4-4.6-9.3-7.8c0.1,0.2,0.3,0.3,0.5,0.5l0,0l7.2,7.2C210.8,40.9,211.4,40.9,211.9,41z"/>
			<path class="st2" d="M212.6,40.9c0.8,0,1.5-0.1,2.2-0.2l7.1-7.1l0,0c0.3-0.3,0.7-0.7,0.9-1.1C217.6,35.6,213.7,39.7,212.6,40.9z"
				/>
			<path class="st6" d="M214.8,40.8c-0.7,0.1-1.4,0.1-2.2,0.2c-0.1,0-0.2,0-0.3,0c0,0,0,0,0,0c-0.1,0-0.2,0-0.3,0
				c-0.6,0-1.1,0-1.6-0.1l2.2,2.2L214.8,40.8z"/>
		</g>
		<g>
			<path class="st7" d="M206.5,52.1h11.7c0.1,0,0.2-0.1,0.3-0.2l1.5-8.7c0-0.2-0.1-0.3-0.3-0.3H205c-0.2,0-0.3,0.2-0.3,0.3l1.5,8.7
				C206.3,52,206.4,52.1,206.5,52.1z"/>
			<path class="st8" d="M203.7,40.3h17.6c0.1,0,0.3,0.1,0.3,0.3v2.6c0,0.1-0.1,0.3-0.3,0.3h-17.6c-0.1,0-0.3-0.1-0.3-0.3v-2.6
				C203.4,40.4,203.5,40.3,203.7,40.3z"/>
		</g>
	</g>
</g>
<g>
	<g>
		<path class="st0" d="M114.3,1.6c-1.5,0.2-3,0.5-4.3,1.1c1.2,2.4,2.6,4.9,4.3,7.2C114,7,114,4.2,114.3,1.6z"/>
		<path class="st0" d="M147.7,4.2c-0.5-0.4-1.1-0.7-1.7-1c0,1.8-0.2,3.6-0.4,5.5C146.4,7.2,147.1,5.7,147.7,4.2z"/>
		<path class="st1" d="M132.1,3c-1.4,0.7-2.8,1.6-3.9,2.6c0.4,0.8,0.9,1.5,1.3,2.3C130.5,6.3,131.3,4.6,132.1,3z"/>
		<path class="st2" d="M129.5,7.9c0.3,0.5,0.7,1.1,1,1.6c3.2,4.6,4.2,9.7,4.2,14.7c1.9-3.4,4.2-6.8,7-10c1-1.1,1.8-2.3,2.6-3.4
			c0.5-0.7,0.9-1.4,1.3-2.1c0.3-1.9-1.6-6.4-2.7-6.7c-1.3-0.3-2.6-0.5-4-0.5c-2.4,0-4.7,0.5-6.8,1.5C131.3,4.6,130.5,6.3,129.5,7.9z
			"/>
		<path class="st3" d="M114.3,9.9c0.1,0.2,0.3,0.4,0.4,0.6c9.8,13.2,11.8,30.7,12.2,35.8c0.6-3.4,2.6-12.6,7.8-22.1
			c0.1-5-1-10.1-4.2-14.7c-0.4-0.5-0.7-1.1-1-1.6c-0.5-0.8-0.9-1.5-1.3-2.3c-0.2,0.2-0.4,0.4-0.7,0.6h0c-2.9-2.9-6.9-4.8-11.4-4.8
			c-0.6,0-1.2,0-1.8,0.1C114,4.2,114,7,114.3,9.9z"/>
		<path class="st1" d="M141.7,14.2c-2.8,3.2-5.1,6.6-7,10c-5.3,9.5-7.2,18.7-7.8,22.1c0,0.1,0,0.1,0,0.2c0.3,0,0.5,0,0.8,0
			c2.6-2.9,12.2-13,24.8-20.3c1.6-2.5,2.5-5.5,2.5-8.7c0-5.6-2.9-10.5-7.2-13.4c-0.6,1.5-1.3,3-2.1,4.5
			C144.5,10.6,143.2,12.4,141.7,14.2z"/>
		<path class="st1" d="M126.1,46.5c0.3,0,0.5,0,0.8,0c0,0,0,0,0,0c0-0.1,0-0.1,0-0.2c-0.4-5.1-2.4-22.6-12.2-35.8
			c-0.1-0.2-0.3-0.4-0.4-0.6c-1.7-2.4-3.1-4.8-4.3-7.2c-5.8,2.4-9.9,8.1-9.9,14.8c0,3.9,1.4,7.4,3.7,10.2
			C115.5,35.4,123.7,43.9,126.1,46.5z"/>
		<path class="st2" d="M126.1,46.5c-2.4-2.6-10.6-11.1-22.4-18.8c0.3,0.4,0.7,0.8,1.1,1.2l0,0l17.4,17.4
			C123.4,46.4,124.7,46.5,126.1,46.5z"/>
		<path class="st2" d="M127.7,46.5c1.8,0,3.6-0.2,5.3-0.4L150.2,29l0,0c0.8-0.8,1.6-1.7,2.2-2.7C139.8,33.5,130.3,43.6,127.7,46.5z"
			/>
		<path class="st6" d="M133,46.2c-1.7,0.2-3.5,0.3-5.3,0.4c-0.3,0-0.5,0-0.8,0c0,0,0,0,0,0c-0.3,0-0.5,0-0.8,0
			c-1.3,0-2.7-0.1-3.9-0.2l5.4,5.4L133,46.2z"/>
	</g>
	<g>
		<path class="st7" d="M113.1,73.5h28.2c0.3,0,0.6-0.2,0.6-0.5l3.6-21c0.1-0.4-0.2-0.8-0.6-0.8h-35.4c-0.4,0-0.7,0.4-0.6,0.8l3.6,21
			C112.5,73.3,112.8,73.5,113.1,73.5z"/>
		<path class="st8" d="M106.2,44.9h42.7c0.4,0,0.7,0.3,0.7,0.7v6.3c0,0.4-0.3,0.7-0.7,0.7h-42.7c-0.4,0-0.7-0.3-0.7-0.7v-6.3
			C105.5,45.2,105.8,44.9,106.2,44.9z"/>
	</g>
</g>
</svg>
